<svg id="Layer_1" data-name="Layer 1" xmlns="http://www.w3.org/2000/svg" viewBox="0 0 199.59 198.91"><defs><style>.cls-1{fill:#6e350e;}.cls-2{fill:#f3d16c;}.cls-3{fill:#af7a1c;}.cls-4{fill:#a06824;}.cls-5{fill:#ae781d;}.cls-6{fill:#93592b;}.cls-7{fill:#fadc8b;}.cls-8{fill:#9b6227;}.cls-9{fill:#a36b23;}.cls-10{fill:#a87220;}.cls-11{fill:#ad771d;}.cls-12{fill:#985e29;}.cls-13{fill:#995f28;}.cls-14{fill:#a16924;}.cls-15{fill:#9e6625;}.cls-16{fill:#a26a23;}.cls-17{fill:#a56d22;}.cls-18{fill:#975e29;}.cls-19{fill:#9c6426;}.cls-20{fill:#aa731f;}.cls-21{fill:#a56e21;}.cls-22{fill:#ab741e;}.cls-23{fill:#a46c22;}.cls-24{fill:#9f6625;}.cls-25{fill:#a77020;}.cls-26{fill:#9c6327;}.cls-27{fill:#a66f21;}.cls-28{fill:#a26b23;}.cls-29{fill:#a9721f;}.cls-30{fill:#955a2b;}.cls-31{fill:#945b2b;}.cls-32{fill:#aa741f;}.cls-33{fill:#ad781d;}.cls-34{fill:#a87120;}.cls-35{fill:#a66e21;}</style></defs><title>signboard2</title><path class="cls-1" d="M200,67.5c-.54.49-1.33.53-1.92,1,1.46,1.11,1.23,2.62,1,4.11a12.93,12.93,0,0,0,.17,3.52,21.87,21.87,0,0,1,.09,2.91,17.89,17.89,0,0,0,.25,2.74,8.37,8.37,0,0,1-.07,4.07,1.55,1.55,0,0,1-1.62,1.18c-1.43,0-2.88.11-4.29,0-1.9-.2-3.81,0-5.69-.16s-3.48,0-5.21-.16-3.74,0-5.61-.13c-8.43-.36-16.87-.07-25.31-.15-1.36,0-2.66-.46-4-.54s-2.58-.32-3.87-.41c-2.77-.2-5.53-.45-8.31-.53-.78,0-1.57,0-2.35-.12-2.13-.2-4.28,0-6.4-.18-3.83-.27-7.66,0-11.49-.15-.56,0-.69.19-.74.73-.16,1.52-.43,3-.61,4.54-.14,1.25-.22,2.5-.33,3.74l-.63,7.73a1.92,1.92,0,0,0,0,.24c.07,2-.11,3.9-.2,5.84-.12,2.45,0,4.91-.14,7.36-.29,4.28-.21,8.56-.09,12.83.1,3.52-.08,7,.14,10.54.18,2.72,0,5.44.15,8.15.22,3,0,5.91.15,8.86.1,2.15.22,4.3.33,6.45s.3,4.59.47,6.88c.15,2,.3,4,.47,6,.22,2.6.44,5.2.64,7.81.15,2,.33,4.06.48,6.09.18,2.37.39,4.74.47,7.12a5.05,5.05,0,0,1-2.93,4.76,13.63,13.63,0,0,1-6,1.64c-.13,0-.27,0-.31.16h-4.77c-1-.16-1.91-.29-2.86-.48-2.44-.51-4.82-1.17-6.63-3.05a2.85,2.85,0,0,1-.84-2c0-8.27-.09-16.53,0-24.79.06-3.12-.07-6.24.15-9.34.18-2.62,0-5.24.15-7.84s0-5.28.16-7.91,0-5.55.15-8.31c.27-3.93,0-7.87.16-11.8.28-5.4.16-10.79.1-16.18,0-3.27,0-6.55-.16-9.82-.09-1.71,0-3.42-.12-5.13-.17-2.51-.26-5-.35-7.55,0-.75-.14-1.52-.11-2.27,0-.46-.18-.51-.56-.51-3.89,0-7.79-.11-11.68,0-2.59.12-5.17.12-7.75.1-4.39,0-8.77.2-13.16.23-1.68,0-3.37,0-5.05.12-2,.17-3.93.16-5.89.31-1.4.11-2.79.31-4.18.47-1,.12-1.26.94-1.49,1.74-.66,2.29-.94,4.69-1.92,6.89a5,5,0,0,1-3.57,3.24,3.22,3.22,0,0,1-3-1.08c-.92-1-1.73-2-2.59-3-1.72-2-3.42-4-5-6.14-1.51-1.94-3-3.88-4.33-5.95a8,8,0,0,1-1.66-4.26c0-.65-.72-1-1.18-1.4a21,21,0,0,1-2.63-2.62c-.78-1-1.66-1.82-2.51-2.72a7.27,7.27,0,0,1-1.14-1.56,1.33,1.33,0,0,1,0-1.21c-2,.75-4.95-2.13-4.36-4.79-.32,0-.62,0-.91,0a2.69,2.69,0,0,1-1.85-.65C4.6,62,3.59,61.7,2.83,61A7,7,0,0,1,.49,57.41a2.51,2.51,0,0,1,.83-2.62c1-1,2-2.19,3.09-3.17s2.13-2,3.13-3a30.54,30.54,0,0,1,2.39-2.7,23.25,23.25,0,0,0,2.54-2.21c.91-1,.77-1.15.2-2a2.37,2.37,0,0,1,.16-2.51,13.43,13.43,0,0,1,3.31-4.11,39.51,39.51,0,0,0,4-3.85c1.08-1.24,2.15-2.49,3.24-3.72a68,68,0,0,0,4.45-6c1.08-1.51,2.08-3.13,3.84-4,.15-.07.29-.17.27-.35-.08-.71.46-1.06.84-1.51a68,68,0,0,1,4.87-5.17,22.86,22.86,0,0,1,1.86-1.69c1-.79,2.47-.77,2.73.47a10,10,0,0,1,.2,1.47c.17,2.55.17,5.11.16,7.67,0,1.19,0,1.18,1.15,1.19,3.3.05,6.6-.14,9.9-.21,2,0,4,.05,6-.13,2.77-.25,5.55.05,8.31-.17s5.28,0,7.91-.13c1.35,0,2.68.2,4,.2.72,0,1.29.7,2,.8a2.82,2.82,0,0,0,.52.11c2.77-.11,5.54.18,8.31.17.43,0,.69,0,.64-.58-.23-2.41-.49-4.82-.62-7.24a17.28,17.28,0,0,1,.08-4.43C91.31,6,93,5,94.74,4.27a21.44,21.44,0,0,1,9.56-1.11,19,19,0,0,1,7.36,1.9,5.46,5.46,0,0,1,2.23,1.87,2.81,2.81,0,0,1,.43,1.38c.25,4,.11,8,.14,12,0,.42.09.55.55.59a15.22,15.22,0,0,0,3.3.12,34.67,34.67,0,0,1,5.85-.11c2.77.1,5.54.22,8.31.11,4.57-.19,9.14,0,13.71-.18,2-.07,4.07.05,6.08-.15a33.86,33.86,0,0,1,5.13-.1c2.47.15,4.93-.16,7.4,0a6.81,6.81,0,0,1,2.6.37c1.34.6,2.71.11,4.06-.09,1.15-.17,2.3-.37,3.47-.44,3.13-.18,6.26-.26,9.39-.34,2.14-.06,4.29-.22,6.44-.32,2-.08,4-.28,6-.3.49,0,.69.11.5.63s-.28.93-.41,1.4c-.4,1.34.16,2.6.42,3.87.43,2.11,1.3,4.1,1.74,6.22.14.63.18,1.15-.7,1.26a7.21,7.21,0,0,0-1.65.57c1.68.17,1.75,1.29,1.61,2.51-.22,2.06-.52,4.11-.88,6.15a14.82,14.82,0,0,0,0,5.06c.26,1.65.48,3.31.86,4.94.15.64-.49,1.24-1.17,1.26-1.09,0-1.06,0-.89,1.11a5.8,5.8,0,0,0,1.1,2.42c.48.7.74,1.51,1.22,2.22s-.05,1.29-.53,1.8c.32.38.8.35,1.19.53.62.28.74.85.46,1.21-.75,1-.32,1.93,0,2.88a4.88,4.88,0,0,0,.42.86Z" transform="translate(-0.39 -3.07)"/><path class="cls-2" d="M23.72,75.75c-.71-.92-.68-1,.39-1.41a5.67,5.67,0,0,0,1.5-.79,1.55,1.55,0,0,1,1-.53c1.66-.26,3.29-.65,5-.84-1.45.15-2.87.55-4.34.59a28,28,0,0,1-5.77-1.93l-2.37-1.76a11.12,11.12,0,0,1-1.94-2.63c-.17-.32-.38-.64-.16-1,0-.44.26-.55.63-.63,2.93-.63,5.86-1.28,8.81-1.88.77-.16,1.59-.1,2.36-.34l.08-.09c.47-.23,1,0,1.48-.22l.25,0a8,8,0,0,0,1.69-.14l.28,0c2.16-.13,4.32-.12,6.47-.33.75,0,1.46.07,2.07-.66.46-.56,1.31-.16,1.89-.23-4.19-.31-8.44.29-12.7.51a64.48,64.48,0,0,0-10.71,1.75c-.6.13-1.21.11-1.79.28a9.63,9.63,0,0,1-3.16.3,23.56,23.56,0,0,1-2.81-2.36.3.3,0,0,1-.06-.48l1-.47a12.46,12.46,0,0,1,2.49-1.18,12.15,12.15,0,0,0-3.1.14,7.14,7.14,0,0,1-2.26-.06,8.59,8.59,0,0,1-4.12-1.61,2.24,2.24,0,0,0-2-1.11,2.5,2.5,0,0,1-.93-.2c-.2-.1-.57-.15-.31-.54a75.46,75.46,0,0,1,9.16-3.13,185.26,185.26,0,0,1,18.48-4q4.59-.78,9.19-1.41a2.53,2.53,0,0,1,1.56.08,1.3,1.3,0,0,0,.93,0,68.12,68.12,0,0,1,11.64-1.55A192.63,192.63,0,0,1,73,45.37c4,.07,8,.24,12,.56a27.35,27.35,0,0,0,6.33.06,3.27,3.27,0,0,1,1.14,0c-3.86-.38-7.82-.89-11.8-1.18-1.51-.11-3-.27-4.51-.36-.36,0-1,0-1-.44s.6-.29,1-.28a10.6,10.6,0,0,1,2,0c.13,0,0-.14,0,0s0,0-.07,0a6.43,6.43,0,0,0-1.58,0c-3.18.08-6.35-.14-9.52-.2-4.18-.08-8.36-.26-12.54-.29a4.3,4.3,0,0,0-2.8.53,3,3,0,0,1-1.7.28c-2.73,0-5.45,0-8.17-.16-.65,0-1.26,0-1.64.67-.2.36-.69.37-1.08.42a175.57,175.57,0,0,0-25.53,4.68c-1.77.47-3.53,1-5.28,1.49A2,2,0,0,1,6.5,51c-.37-.62.29-.69.52-1a22.91,22.91,0,0,0,3.61-3.49,14.88,14.88,0,0,1,3.53-3c1.53-.44,3.08-.78,4.61-1.23.21-.1.49.1.65-.19.44-.27,1.06-.26,1.34-.8a4.27,4.27,0,0,1,1.86-.37c1.69-.08,3.37-.24,5.07-.19,2.33.07,4.65-.28,7-.43,1.29-.08,2.59-.08,3.88-.16,2.58-.16,5.16-.35,7.67-.5.17,0,0-.18.08-.08s0,.05,0,.05a32.39,32.39,0,0,1-7,.08c-1.37-.15-2.75,0-4.12-.06a72.09,72.09,0,0,0-19.14,2,1.4,1.4,0,0,1-1.08,0l-.13,0c-.38-.51-.17-1,0-1.49a17.86,17.86,0,0,1,2.05-2.9,65.69,65.69,0,0,1,6.52-7.32.75.75,0,0,1,.42-.22c2.34-.47,4.65-1,7-1.38,1.06-.15,2.11-.34,3-.39.27-.1.11-.21.17-.13s0,.07,0,.08a12.83,12.83,0,0,1-2,.24c-2,.16-4.06.2-6.09.39a1.17,1.17,0,0,1-.55-.08c-.22-.11-.25-.3-.1-.45.79-.83,1.41-1.85,2.56-2.28,2.85-.1,5.7-.3,8.56-.39,4.31-.12,8.62-.32,12.93-.25,2.62,0,5.24.15,7.86.12,3.54-.05,7.08-.4,10.63-.32,1.85,0,3.68.26,5.3.31a12.31,12.31,0,0,1-2.64-.35,1.13,1.13,0,0,1,.91-.52,36.54,36.54,0,0,1,5.21-.55,102.47,102.47,0,0,1,10.94.39,4.19,4.19,0,0,0,1.33-.17c.85-.2,1.68-.43,2.57-.66-3.12,0-6.17-.27-9.24-.36l-11.42-.32c-3.14-.09-6.28-.32-9.43-.46-.32,0-.71.06-.85-.39A3.83,3.83,0,0,1,63,21.51c2.41.22,4.82.14,7.23.12a137.32,137.32,0,0,1,14.34.61,71.31,71.31,0,0,0,7.45.35c1.32,0,2.64-.13,4-.24a3.51,3.51,0,0,1,2.07.38,2.75,2.75,0,0,0,1.45.34,26,26,0,0,1,3.64.17c.28,0,.64,0,.77.29s-.28.4-.4.63a16.58,16.58,0,0,0,4.34-.36,26.23,26.23,0,0,1,6.36-.89c1.34.08,2.69.2,4,.18a.88.88,0,0,1,.6.17c.06.54-.39.41-.63.43-1.82.14-3.64.31-5.46.5a3,3,0,0,0-1.62.56,2.29,2.29,0,0,1-1.24.5,45.38,45.38,0,0,0-7.28,1.47c2.94.28,5.82.5,8.72.66,6.79.39,13.59.44,20.39.51,2.35,0,4.72-.05,7.06.15,2.8.24,5.61.18,8.41.22a84.89,84.89,0,0,0,15.25-1.16c4.54-.77,9-1.89,13.53-2.73,3.51-.65,7-1.44,10.51-2.09a3.19,3.19,0,0,0,.91-.27,12.94,12.94,0,0,1,5.47.21,2,2,0,0,1,1.3,1.31c.48,1.23.6,2.57,1.1,3.8a.44.44,0,0,1-.12.51,16.32,16.32,0,0,1-3.76.45c-1.6.18-3.2.43-4.8.62-1.93.23-3.88.4-5.2.72,4.11-.52,8.83-.33,13.55-.35a1.57,1.57,0,0,1,.92.17,2.56,2.56,0,0,1,.47,2,1.58,1.58,0,0,1-1.79,1.61c-1.9,0-3.81,0-5.72,0-2.56,0-5.12.15-7.69.2-.84,0-1.68-.06-2.32,0,2,.08,4.24-.14,6.46.08,2,.2,4,.17,6,.38a1.61,1.61,0,0,1,1,.24c.28.26.06.52,0,.82.8.25,1.66-.12,2.43.24,0,0,.05,0,.05.07a9.88,9.88,0,0,1-.83,2.36,30.43,30.43,0,0,1-5.22.39l-9.35.62c-2.61.18-5.22.34-7.84.53-2.95.22-5.91.36-8.87.59-1.19.09-2.38.12-3.57.16-3.28.1-6.55.3-9.83.38-5.19.14-10.38.31-15.56.29-.53,0-1.06,0-1.52,0a15.72,15.72,0,0,1,3.26.86,3.48,3.48,0,0,0,1.39.27c4-.11,7.94.14,11.91.19,3.76,0,7.52.16,11.27.31s7.73.22,11.58.49A87.68,87.68,0,0,0,184.36,42c2.93-.21,5.85-.5,8.78-.72a1.15,1.15,0,0,1,.55,0c.51.71.4,1.06-.4,1.31a1.64,1.64,0,0,1-.62.09,4.43,4.43,0,0,0-.63,0c1.47.08,1.81.36,1.82,1.49s-.27,1.45-1.6,1.56c-3.1.24-6.18.81-9.31.53a4.5,4.5,0,0,0-.9,0c1.2-.07,2.39.12,3.59.08.19,0,.44,0,.31.37a1.76,1.76,0,0,1-1.08.18c-3.73-.11-7.46.13-11.18.34-1.12.07-2.22.12-3.34.15a3.43,3.43,0,0,0-2,.59,2.75,2.75,0,0,1-1.5.48c-2.67.15-5.33.35-8,.53-3.22.22-6.44.42-9.66.56-3.07.13-6.13.36-9.19.55-4,.25-7.94.31-11.88.81a12.64,12.64,0,0,1-3.07.44c-.4-.05-1,.13-1.1-.32s.6-.46,1-.61a1.2,1.2,0,0,1,.17,0c-1.65,0-3.34.13-5,.15-10.85.13-21.71.25-32.57.19a8.08,8.08,0,0,1-2.58-.35,7.4,7.4,0,0,0-3.07.09c-3.62.28-7.22.7-10.84.92-3.38.22-6.76.35-10.14.59-.88.06-1.74-.16-2.61-.15a91.82,91.82,0,0,0-12.5,1c-2.43.35-4.9.41-7.36.62l-8.7.72c-3.4.27-6.8.6-10.21.87-1.58.13-3.16.3-4.74.36,5.35-.11,10.71-.06,16.06-.06q13.95,0,27.9,0c2.19,0,4.38.23,6.58.16a10,10,0,0,0,1.64-.24,20.57,20.57,0,0,1,6-.36c3.3.24,6.59.53,9.88.9s6.36.76,9.53,1.25a10,10,0,0,0,1.9.09,66.8,66.8,0,0,1,7.62.06c.42,0,.84,0,1.27,0h15c2.2,0,4.39-.13,6.58-.32a1.93,1.93,0,0,0,.78-.17c-1.74-.32-3.41-.4-5.06-.56-3.66-.35-7.33-.65-11-1s-7.07-.58-10.59-1c-1.32-.15-2.62-.39-3.94-.5a1.88,1.88,0,0,1-.47-.1c-.18-.08-.46-.11-.43-.38s.26-.24.43-.28c.41-.1.83-.18,1.33-.26-.71-.17-1.37-.19-2-.4-.16-.05-.4-.1-.38-.32s.26-.23.43-.26a3,3,0,0,1,1,0c2.77.26,5.55.25,8.32.43,2.06.13,4.13,0,6.2,0h.32c.41,0,1.08-.12,1.13.29s-.65.47-1.16.73c4-.32,7.8-.12,11.64-.25,9-.3,18,0,26.93-.14a1.65,1.65,0,0,1,.63.05c1.93.82,3.88.17,5.8,0,3.73-.28,7.43-.68,11.16-.89,4-.21,8-.47,12.06-.48,1.08,0,2.17-.16,3.26-.12,2.82.31,5.67.38,8.51.48a2.41,2.41,0,0,1,1.29.3c.18.43-.16.37-.39.42-2.15.42-4.31.72-6.47,1-.36.05-.7.13-.89.14,2.81-.43,5.81-.74,8.74-1.45,1.3,0,1.5.16,1.69,1.39.05.33.17.65.25,1l.31,1.12a1.71,1.71,0,0,1-.86.37,82,82,0,0,1-12.09,1.77c-3.84.41-7.68.75-11.53,1.06-3.14.26-6.28.49-9.41.71-1.09.08-2.16.07-3.24.12-.21,0-.45.1-.55,0,.82-.08,1.74,0,2.65,0,3.63,0,7.25.11,10.87.29h.16c3.67-.09,7.35.26,11,.17a2.92,2.92,0,0,0,1.58-.41,2.7,2.7,0,0,1,1.44-.38c3.23,0,6.46,0,9.68.16a1.52,1.52,0,0,1,.47.1c.41.52-.1.7-.38.89a5.75,5.75,0,0,1-1.86.62,11.73,11.73,0,0,0,2.13-.14,2.43,2.43,0,0,1,1.1.11c.82.25.94.43.73,1.25a2.56,2.56,0,0,0,.18,1.7c.16.38.37.75.51,1.16a1.77,1.77,0,0,1-1.13,2.54,2.17,2.17,0,0,1-1.3.26c-3-.23-6-.73-9-.88q-3.53-.16-7.05-.29a3.47,3.47,0,0,0-1.56.26,2.9,2.9,0,0,1-1.24.21c-3.28-.1-6.56.1-9.84.18-3,.08-6,.29-9,.28a2.7,2.7,0,0,0-.63.12,43.7,43.7,0,0,1-6.57-.15c-2.46-.14-4.91-.35-7.37-.43-.39,0-1,.12-1.06-.35s.67-.35,1.05-.36c.71,0,1.42,0,2.13,0-10,.17-19.92.11-29.88.25,1.39,0,2.78,0,4.18,0q3.24-.15,6.5,0c1.22.06,2.43,0,3.65,0,.38,0,.82-.09,1,.36a.47.47,0,0,1-.4.24c-1.11,0-2.18.29-3.31.26a72.78,72.78,0,0,0-8.09.07c-1.64.14-3.28.1-4.92.17-5.64.22-11.26.58-16.87,1.11a6.86,6.86,0,0,1-2.51-.27,1.87,1.87,0,0,0-1.67.22,3,3,0,0,1-2.21.41Q83,68.57,76.3,67.84c-3.24-.35-6.48-.67-9.72-.92-3.88-.29-7.75-.56-11.63-.72-3.36-.13-6.71-.18-10.07-.21a1.11,1.11,0,0,1-1-.26,25.23,25.23,0,0,1,5.33-1.29c-1.77.26-3.52.59-5.29.86a43.28,43.28,0,0,1-5.46.36c-1.82.06-3.65,0-5.5,0a6.14,6.14,0,0,0,1.29,0c3-.12,6,.13,9,.21,3.46.1,6.93,0,10.38.22,2.85.15,5.7.26,8.54.5,10.58.91,21.12,2.17,31.63,3.69l3.14.47c.18,0,.4.09.52-.07s0-.35-.15-.49c-.33-.42-.14-.61.31-.68a4.15,4.15,0,0,1,.79,0c2.93.06,5.86.27,8.8.43,2.08.11,4.17.22,6.26.35l7,.44,6.34.36c3.12.17,6.24.25,9.36.45a1.62,1.62,0,0,0,.31,0c2.65-.09,5.29.21,7.94.17,4.4,0,8.79.1,13.18.21q7.11.18,14.22.07c3.3,0,6.61-.18,9.91-.39,3.81-.24,7.6-.62,11.39-1a10.44,10.44,0,0,0,1.24-.24c.59-.07,1.15,0,1.3.69a1.2,1.2,0,0,1-1,1.43,17.74,17.74,0,0,1-5.44.24c-1.14-.08-2.27,0-3.09,0,2.75,0,5.82.15,8.88.35.43,0,1,0,1.17.5a2.26,2.26,0,0,1-.22,1.84.8.8,0,0,1-.78.31,44.13,44.13,0,0,0-4.6,0c1.12,0,2.23-.1,3.34-.08,1.32,0,1.45.15,1.38,1.45a4.23,4.23,0,0,1-.12,1.18.79.79,0,0,1-.61.57,25.76,25.76,0,0,1-3.4-.11c-3.47,0-6.94,0-10.41,0-3.91,0-7.81.45-11.73.31a46.27,46.27,0,0,0-8.06.53,44.8,44.8,0,0,1-9.19.16c-1.61-.1-3.22-.19-4.83-.31a1.26,1.26,0,0,0-.39,0,40.63,40.63,0,0,0-4.07,1.08,5.45,5.45,0,0,1-2,.09,46.06,46.06,0,0,0-5.63-.13c-1.15,0-2.27-.21-3.41-.19-.26,0-.56,0-.68-.31s.22-.39.34-.6a1.85,1.85,0,0,0-1.16-.09c-2.33.17-4.59.78-6.88,1.17a12.94,12.94,0,0,1-3.88,0c-.74-.1-1.48,0-2.22-.06-.31,0-.73.11-.79-.41a3.74,3.74,0,0,1,1.77-.34c1.37-.08,2.74-.29,4.11-.37a2,2,0,0,0,1.12-.37,4,4,0,0,1,2.13-.76,43.55,43.55,0,0,0,6.73-1.4c-2.75-.25-5.43-.45-8.11-.63-3.31-.24-6.61-.25-9.91-.43-2.46-.13-4.93.06-7.39,0-3.31-.16-6.62,0-9.92-.17-3-.12-6.08-.32-9.11-.57-1.16-.1-2.32-.13-3.48-.17-4.53-.15-9.06-.34-13.58-.16-4,.15-8,.25-12,.57-3.27.25-6.55.49-9.8.85-5,.54-10,1.27-15,2.13-2.49.44-5,1-7.47,1.35a1.56,1.56,0,0,1,.28-2.63c3.79-.75,7.6-1.44,11.42-2,.63-.09,1.21-.17,1.66.42.17.21.42.18.66.17,2.75-.16,5.48-.52,8.21-.9,1.82-.26,3.66-.44,5.47-.78-2,.42-4,.24-6,.46-.5.06-1.38.21-1.42-.25s.79-.36,1.24-.41c3.31-.39,6.63-.68,10-.94,3.51-.27,7-.42,10.54-.51a6.13,6.13,0,0,1,1.63.08c.21,0,.09-.14.11,0s0,0-.07,0a33.63,33.63,0,0,0-3.48-.12,102.93,102.93,0,0,0-11.91-.16A163.67,163.67,0,0,0,25.19,76c-.13,0-.24.1-.37.13A1.06,1.06,0,0,1,23.72,75.75Z" transform="translate(-0.39 -3.07)"/><path class="cls-3" d="M116.2,80.07c.06.05.12.12.19.13,3.09.06,6.18.43,9.23-.47a29.86,29.86,0,0,1,4.79-.76,6.17,6.17,0,0,1,1.48.22c-.22.5-.82.31-1.07.85,1.14,0,2.2.11,3.25.16,1.61.08,3.23,0,4.84,0a30,30,0,0,0,3.55.13,14.23,14.23,0,0,1,3.63,0c1.55.15,3.12.14,4.67.22,1.79.1,3.59.18,5.39.22,4.36.08,8.72.21,13.08.43,2.64.14,5.28.23,7.92.4,2.43.16,4.87-.06,7.29.26a18.45,18.45,0,0,0,2.77-.15c1.77,0,3.54.12,5.31.16a1.23,1.23,0,0,0,.84-.11c-.43-1.06-.43-1.06.77-1.41a.79.79,0,0,0,.52-.29c-.53-.27-1.13-.27-1.62-.55-.23-.12-.56-.24-.48-.54s.41-.18.64-.19a3.18,3.18,0,0,0,1.4-.16c.41-.07.45-.39.46-.71a3.77,3.77,0,0,0,0-1c-.06-.34.37-.77.05-.94a3.08,3.08,0,0,0-1.37-.27c-1.15,0-2.29,0-3.44,0a22.66,22.66,0,0,1,4.72-.25c.74,0,1-.27,1-.93.07-1.19,0-1.28-1.27-1.32-3.1-.09-6.18-.57-9.29-.48,0,0-.08,0-.23-.15h6.21a20.5,20.5,0,0,0,3.12-.32c.89-.12,1-.47,1-1.21s-.65-.52-1.1-.51a5.63,5.63,0,0,1-1.42,0c-.23,0-.57,0-.58-.28s.32-.28.54-.32.58,0,.7,0c-2.82,0-5.8,0-8.78,0a4.59,4.59,0,0,1-1.32-.24c-.18-.06-.38-.16-.39-.36s.22-.27.4-.32a12.41,12.41,0,0,1,2.27-.32c1.82-.13,3.64-.17,5.46-.32,1.06-.09,2.08-.37,3.14-.4a3.93,3.93,0,0,0,1.75-.66c.64-.39.51-1,.41-1.64a4,4,0,0,0-.41-1,2.63,2.63,0,0,1-.24-2.61c.17-.3,0-.46-.27-.53a2.94,2.94,0,0,0-1.62-.21,17.94,17.94,0,0,1-2.83.17,3,3,0,0,1,1.64-.67c.6-.18,1.24-.3,1.54-1,.23-1.11-.18-2.22,0-3.33a4.54,4.54,0,0,1,1,1.42c.21.34.34.72.55,1.06.74,1.15.75,1.15-.16,2.21l1.12.51a.79.79,0,0,1,.41,1.28,2.23,2.23,0,0,0-.1,2.19c.76,2,.77,2-1.29,3.19,1.42,1.1,1.16,2.58.94,4.06a10.32,10.32,0,0,0,.17,3,9.31,9.31,0,0,1,.09,2.52,17.06,17.06,0,0,0,0,3.78c0,.52,0,1-.7.91-.2,0-.41.1-.62.1-4-.11-8,.33-12,.14-5.45-.26-10.9,0-16.35-.13-1.13,0-2.25.18-3.39.17a49.47,49.47,0,0,1-9.29-.6c-2.33-.47-4.59-.16-6.87-.37s-4.82-.43-7.22-.62c-.9-.07-1.8-.11-2.69-.14-2.71-.11-5.43-.3-8.16-.19-.21,0-.48-.08-.6.11-.36.58-.9.42-1.4.36a133,133,0,0,0-13.68-.5c-3-.06-5.89-.57-8.83-.4-1.71.09-3.52-.31-5.1.31-2.24.89-4.51.73-6.79.75-3.07,0-6.14-.08-9.21,0-4.18.14-8.37,0-12.54.18-2.48.1-5,0-7.45.15-2,.16-3.91,0-5.86.14-2.74.16-5.48.18-8.22.34a92.7,92.7,0,0,0-9.26.76c-.94.15-1.13.36-1.16,1.33a22.65,22.65,0,0,1-.16,4.51,7.53,7.53,0,0,1-1,2.62c-.95,1.4-1.52,1.4-2.81.28a43.77,43.77,0,0,1-4.07-4.32,61.91,61.91,0,0,1-4.77-6.08,6.75,6.75,0,0,1-1.51-3.18,1.87,1.87,0,0,0-1.23-1.86.82.82,0,0,1-.44-.79l1,.31a2.81,2.81,0,0,1,1.79.08c.62.18.63.43.09.9a1.79,1.79,0,0,0-.32,2.4,1,1,0,0,1,.37.31c1.77,1.85,3.37,3.85,5,5.79,1.07,1.24,1.93,2.65,3.13,3.79a5.37,5.37,0,0,0,1.76,1.19c1,.38,1.54.12,1.76-.9a16.57,16.57,0,0,0,.31-3,31.72,31.72,0,0,1,.18-5.06c.39-1.47,1-1.89,2.14-1.57.94,1.32,2.42,1.1,3.74,1.25a8.88,8.88,0,0,0,2.67-.13,37.65,37.65,0,0,0,5-.56,40.47,40.47,0,0,1,7-.42,28.94,28.94,0,0,0,6.94-.69,51.09,51.09,0,0,1,7.79-.91,52.14,52.14,0,0,1,9.26.41c2.23.27,4.48.35,6.72.52a59,59,0,0,0,8.08.33c2.73-.16,5.44.35,8.15.27,2.88-.09,5.77.05,8.64-.2C115.36,79.83,115.82,79.72,116.2,80.07Z" transform="translate(-0.39 -3.07)"/><path class="cls-3" d="M186,46.67c-.23-.25-.55-.15-.82-.14-1.18,0-2.34-.28-3.52-.33h1a58.16,58.16,0,0,0,8.33-.62,14.57,14.57,0,0,0,2-.18c.15,0,.37,0,.44-.12a2.57,2.57,0,0,0,.17-1.77c0-.38-.42-.43-.78-.52a9.24,9.24,0,0,0-1.6-.15.56.56,0,0,1,.58-.3h.72c1,0,1.15-.13,1.25-1.12a.88.88,0,0,1-.07-.69,12.64,12.64,0,0,0,.18-2.61,1.15,1.15,0,0,1,.21-.82c-.3-.9.4-1.5.68-2.22-.18-.44-.62-.43-1-.56a7,7,0,0,1-1.43-.38,5.61,5.61,0,0,0-2.4-.29c-1.42-.08-2.85-.07-4.25-.25-1.82-.24-3.64.08-5.44-.27a8.6,8.6,0,0,0-2.26.11,3.57,3.57,0,0,1,1.36-.29c5.14-.35,10.29-.35,15.44-.29,1.16,0,1.47-1.26,1.33-2.23a7.92,7.92,0,0,0-.31-1.13,3.07,3.07,0,0,1-.64-1.74c-.36-1.3-.72-2.61-1.09-3.91a2,2,0,0,0-1.69-1.55,13.29,13.29,0,0,0-4.83-.12c-4,.57-8.07,1.39-12.19,1.21a27.09,27.09,0,0,0-6.78.65,80.88,80.88,0,0,1-8.35,1,39,39,0,0,1-8.3-.42c-2.47-.28-5-.35-7.43-.57-2.19-.19-4.38-.27-6.57-.45a16.2,16.2,0,0,0-2.61.16,44,44,0,0,1-5.14-.26,39.22,39.22,0,0,0-4.6,0c-2,.15-4.07.05-6.11,0a.82.82,0,0,1-.59-.2l-5-.18a25.71,25.71,0,0,0-6,.88,19.73,19.73,0,0,1-4.47.39,1.23,1.23,0,0,1-.68-.21l1.08-.56,0-.14-3.08-.2a6.39,6.39,0,0,1-3.08-.47c-1.27-.72-2.74-.17-4.11-.09a26.53,26.53,0,0,1-4.18,0c-1.31-.14-2.62-.07-3.93-.23-2.71-.31-5.44-.45-8.17-.66-.21,0-.42,0-.63,0-4,0-8,0-11.92,0-1.39,0-2.79-.21-4.19-.12a1.16,1.16,0,0,1-1,.2c-4.07-.27-8.13-.32-12.2-.29q-2.46,0-4.92,0a2.87,2.87,0,0,1-1.39-.25c-.22-.17-.41-.35-.21-.65,3.89,0,7.78-.33,11.66-.12s8,.14,12,.1c2,0,4-.09,5.94-.13,2.83-.06,5.64.24,8.46.36.56,0,1.27-.1,1.74.5.1.13.45.09.68.09,1.43,0,2.86,0,4.29,0,2,0,4,.34,6,.35a23.83,23.83,0,0,0,3-.26c1.13-.13,2.27,0,3.4-.08.1,0,.26,0,.29.09.49,1.25,1.65.68,2.47.8a28,28,0,0,0,4.2.06c.16,0,.39,0,.46-.08.59-.85,1.44-.41,2.13-.33.86.1,1.73.18,2.58.21,2.64.1,5.28.3,7.93.2s5.53.21,8.3.33a79.9,79.9,0,0,0,8-.16,65.4,65.4,0,0,1,8.85-.3c2.06.17,4.12,0,6.17.15a31.7,31.7,0,0,0,4.35.12c2.9-.16,5.8-.24,8.7-.33,2.34-.08,4.69-.2,7-.31,3-.15,6.08,0,9.12-.17a73.4,73.4,0,0,1,8.77-.24c2.2.16,4.35-.36,6.53-.22.66,0,1.31.18,2,.18.29,0,.39.13.19.39,0,0-.07.09-.11.11-1.48.73-1,1.91-.75,3.06.42,2.2,1.34,4.27,1.84,6.44.28,1.24.25,1.3-1,1.67-.38.12-.83,0-1.17.33,1.55.84,1.7,1.11,1.45,3s-.46,3.6-.83,5.37a15,15,0,0,0,.09,5.39c.18,1.27.48,2.52.73,3.78.17.88-.38,1.4-1.48,1.5-1.5.13-1.5.13-1.22,1.68a1.7,1.7,0,0,1,0,.39,2.08,2.08,0,0,1-.33-.91c-.26-1.16-.29-1.17-1.59-1.29a1.29,1.29,0,0,1-.94-.16c-3.27-.39-6.57-.23-9.84-.66,0-.39.35-.35.59-.38a92.32,92.32,0,0,1,9.25-.65c.82,0,1.63-.16,2.45-.2a.8.8,0,0,0,.81-.88c.14-2-.09-2.22-2.05-2.41a48.84,48.84,0,0,0-5-.17C186.75,46.92,186.34,47,186,46.67Z" transform="translate(-0.39 -3.07)"/><path class="cls-4" d="M108.26,110.27c.58,2.87,1.65,5.64,1.61,8.64-.06,4-.09,8,0,12.08.07,2.56,0,5.13.18,7.68.11,1.5.16,3,.17,4.49a18,18,0,0,1-.19,4.33,1.47,1.47,0,0,0,0,.47c.11,2-.13,4-.2,5.94-.06,2.21-.19,4.42-.31,6.63-.13,2.52-.17,5.06-.32,7.58-.24,4.07-.1,8.14-.1,12.21a38.76,38.76,0,0,0,.74,7.36,3.77,3.77,0,0,1,0,.48c-.08,3.58-.08,7.17,0,10.76a1,1,0,0,1-.12.68,1.85,1.85,0,0,1-1.27.32c-.45-.08-.38-.45-.4-.74,0-.67,0-1.33,0-2q0-17.64,0-35.28c0-4.29,0-8.58,0-12.87-.08-.34.14-.69,0-1a4.82,4.82,0,0,1-.11-1.56,6.7,6.7,0,0,0-.21-2.09,49.54,49.54,0,0,0,.53-8c0-1.95-.21-3.9-.43-5.84a11.17,11.17,0,0,1-.1-1.42,15.1,15.1,0,0,0,.19-2.6q0-7.52,0-15C107.87,111.08,107.65,110.53,108.26,110.27Z" transform="translate(-0.39 -3.07)"/><path class="cls-3" d="M100.09,6.32a134.65,134.65,0,0,0,.28,14.06,51.59,51.59,0,0,0-1.69-7.46c.13.85.27,1.7.38,2.56.2,1.53.39,3.06.59,4.6,0,.29-.11.36-.36.37a6.59,6.59,0,0,1-1.88-.17c-.36-.08-.4-.38-.43-.68A52.56,52.56,0,0,0,94.26,7.73c-.36-1-.33-1.13.68-1.68a12.51,12.51,0,0,1,5.39-1.3c1.17-.07,2.34-.16,3.61-.22-1.1,2.33-.72,4.62-.47,6.92.29,2.75.83,5.44,1.3,8.16.1.61,0,.92-.76.87-1.2-.09-1.23,0-1.3-1.21-.12-2.16-.41-4.31-.32-6.47,0-1.12.17-2.23.26-3.41-.46.33-.32.83-.36,1.18a29.09,29.09,0,0,0-.24,7.63c.09.65,0,1.32,0,2,0,.39-.25.27-.41.27-.31,0-.64.12-.76-.43a19.94,19.94,0,0,1-.25-2.66c-.14-1.94-.27-3.89-.4-5.83C100.17,9.79,100.24,8.05,100.09,6.32Z" transform="translate(-0.39 -3.07)"/><path class="cls-3" d="M107.08,10.58a49,49,0,0,0,0,5.28c.15,1.41.27,2.82.49,4.22,0,.17,0,.35-.21.35-.53,0-1.06,0-1.59,0-.2,0-.21-.2-.23-.36-.35-2.89-1-5.72-1.28-8.63-.09-1.15-.2-2.3-.32-3.44a6.91,6.91,0,0,1,.21-1.88c.22-1.22,1-1.76,2.11-1.36a6.31,6.31,0,0,1,3.79,2.79,7.27,7.27,0,0,1,.72,2.65,58.9,58.9,0,0,1,.51,7.63c0,.73.12,1.46.15,2.2,0,.54-.26.68-.68.56a6.7,6.7,0,0,0-1.89-.13c-.37,0-.56-.12-.63-.53a68.54,68.54,0,0,1-1-7.41C107.27,11.87,107.16,11.23,107.08,10.58Z" transform="translate(-0.39 -3.07)"/><path class="cls-5" d="M102.23,84.69c1,.07,1.89-.29,2.86-.16.29.32.22.73.24,1.11a6.71,6.71,0,0,0,.1,1.79c0,1.58-.31,3.15-.36,4.73,0,.36-.07.73-.07,1.1,0,3.81-.11,7.63,0,11.43.14,3.54.22,7.08.58,10.61a6.13,6.13,0,0,1,0,1.42,9.27,9.27,0,0,0-.14,2.52,2.07,2.07,0,0,1-.17,1.15c-.48.27-.52-.14-.61-.41-.2-.6-.28-1.23-.52-1.82-.11-.25-.15-.65-.44-.7s-.4.36-.57.58-.34.59-.57.84-.3.23-.46,0a2.31,2.31,0,0,1-.16-1.16c0-3,0-6,0-9a8,8,0,0,0-.22-1.55c.06-1.51.47-3,.62-4.48.18-1.94.35-3.89.49-5.84.21-3.14.08-6.29.22-9.44,0-.06.06-.1,0-.17-.07,2-.15,4.06-.12,6.1,0,1.85-.23,3.69-.25,5.54,0,.33,0,.72-.45.85-.37-.21-.34-.58-.34-.91,0-4.44,0-8.88,0-13.32A1.15,1.15,0,0,1,102.23,84.69Z" transform="translate(-0.39 -3.07)"/><path class="cls-6" d="M94.6,174.81a5.72,5.72,0,0,0-.28,2.31c0,3.75-.34,7.5-.19,11.26a55.78,55.78,0,0,0,.46,6.45,3.94,3.94,0,0,1,0,.53,23.51,23.51,0,0,1-.76-4.33c-.22-1.69-.41-3.39-.61-5.08-.09-.79-.08-1.58-.16-2.37-.16-1.57-.13-3.16-.19-4.74-.34-8.78-.13-17.57-.12-26.35,0-2.51,0-5,.16-7.53.12-1.8,0-3.59.12-5.38.19-3.4.32-6.8.32-10.21.22,0,.15.19.15.28-.11,2.27.11,4.54.2,6.81a60.21,60.21,0,0,0,.57,6.43c.17,1.2.24,2.41.35,3.61.18,4.49.07,9,.09,13.46a42,42,0,0,0,.3,7.44,5.88,5.88,0,0,1,.05,1,32,32,0,0,0-.2,5.18C94.83,174,94.92,174.46,94.6,174.81Z" transform="translate(-0.39 -3.07)"/><path class="cls-7" d="M194.41,56.54c.15,1.11.63,2.22,0,3.33-3.39-.1-6.77-.21-10.15-.16a2.52,2.52,0,0,0-1.76.58,1.07,1.07,0,0,1-.82.22c-1.82,0-3.66.12-5.48,0-2.11-.17-4.23,0-6.33-.16-1.91-.17-3.81,0-5.7-.15s-3.86,0-5.78-.16c-.81,0-1.62-.13-2.43-.26,1.41-.11,2.82-.25,4.23-.35,2.65-.19,5.3-.34,7.94-.62,1.52-.15,3-.21,4.56-.34,2-.18,4.08-.4,6.12-.59,1.26-.13,2.52-.23,3.77-.36,2-.23,4.07-.49,6.11-.7,1.83-.2,3.58-.82,5.41-1Z" transform="translate(-0.39 -3.07)"/><path class="cls-8" d="M95.56,117.42c.37-1.54.73-3.09,1.11-4.63A1.55,1.55,0,0,1,97,112c.52.3.41.83.41,1.28,0,3.92,0,7.83,0,11.75a3.57,3.57,0,0,0,.1,1.26,24.43,24.43,0,0,1-.32,4.09A90.33,90.33,0,0,0,97,141.54c.11,2.06.29,4.11.5,6.15a2.41,2.41,0,0,1,0,.71,3.73,3.73,0,0,0-.11,1.33c0,2.33.07,4.67,0,7-.18.67.35,1.24.29,1.9-.2.39.1,1-.51,1.22-.29.67.13,1.27.16,1.91.23,4.15,0,8.3.1,12.45a2.09,2.09,0,0,1-.29,1.29c-.56.19-.49-.31-.55-.57-.31-1.44-.61-2.88-.85-4.34a8,8,0,0,1-.3-2.58,11.79,11.79,0,0,0,0-2.45c0-3.25,0-6.5,0-9.75,0-.49-.07-1,.41-1.37.45-.77,0-1.53-.06-2.29a3.15,3.15,0,0,0-.25-1.53,5.49,5.49,0,0,0,.07-1.57q0-15.19,0-30.39A2.93,2.93,0,0,0,95.56,117.42Z" transform="translate(-0.39 -3.07)"/><path class="cls-9" d="M108.12,148.73c.27.3.14.66.14,1q0,24.61,0,49.22c0,.33-.13.69.16,1-.28.28-.63.1-1,.16s-.39-.41-.39-.66q-.07-3.45,0-6.9a1.43,1.43,0,0,1,.17-.61,1.23,1.23,0,0,0,.11-.92,67.62,67.62,0,0,1-1.09-12.3c0-2.57-.07-5.14,0-7.71.19-5.55.07-11.11.17-16.67a12.23,12.23,0,0,1,1-4.79C107.58,149.18,107.69,148.82,108.12,148.73Z" transform="translate(-0.39 -3.07)"/><path class="cls-2" d="M40.89,20.76c0,.19.07.33.16.48a1.9,1.9,0,0,0,.55,1c.44.38.16.59-.21.72a6,6,0,0,0-1.43.43c.13.26.53.16.58.48-.13.25-.38.26-.61.27-1.84.12-3.69.21-5.53.31-1.66.1-3.33.18-5,.29a1.23,1.23,0,0,1-.47,0c-.4-.23-.19-.52,0-.72.9-1.06,1.45-2.36,2.42-3.37a10,10,0,0,1,1.51-1.24.57.57,0,0,0,.33-.42c.12-.87.8-1.13,1.49-1.38a49.77,49.77,0,0,1,5.18-.6c.28,0,.58-.1.83.12C40.82,18.33,40.53,19.56,40.89,20.76Z" transform="translate(-0.39 -3.07)"/><path class="cls-8" d="M111.14,191.64A69.81,69.81,0,0,1,110,183c-.28-4.65-.11-9.31-.09-14,0-1.31.06-2.63.12-4,.18-4,.29-8,.36-12a26.92,26.92,0,0,1,.22-3.68c-.06,1.35.16,2.68.22,4,.08,2,.17,3.94.33,5.91.19,2.36.42,4.72.45,7.09.2,7.93.08,15.86.09,23.79C111.69,190.7,111.89,191.37,111.14,191.64Z" transform="translate(-0.39 -3.07)"/><path class="cls-10" d="M105.26,87.38c-.37-.93-.08-1.9-.17-2.85.53,0,1.06,0,1.58,0s.7.2.64.69c-.25,1.85-.33,3.71-.49,5.56a56.79,56.79,0,0,0-.29,6.77c0,1.44.19,2.88.29,4.31.22,5.37.07,10.74.11,16.11a1.69,1.69,0,0,1-.34,1.35c-.52.06-.43-.38-.47-.63a33,33,0,0,1-.46-4c-.21-2.92-.35-5.86-.52-8.79-.25-4.39-.22-8.78-.19-13.17a34.62,34.62,0,0,1,.53-5.74c0-.11-.12,0,0,0s0,0,0,.08S105.44,87.39,105.26,87.38Z" transform="translate(-0.39 -3.07)"/><path class="cls-11" d="M104.77,200.37h-.08c-.69,0-1.6.27-2-.07s.3-1.18.3-1.83a35.73,35.73,0,0,0,0-3.87c-.17-1.75-.44-3.48-.71-5.21-.2-1.37-.56-2.72-.65-4.11-.12-2.67-.08-5.34-.08-8a1.66,1.66,0,0,1,.34-1.34c.58,0,.52.51.59.84.43,2.2.83,4.41,1.12,6.64a50.69,50.69,0,0,1,.5,8.53,15.66,15.66,0,0,1-.19,2.56,37.31,37.31,0,0,0,.22-5.79,39.87,39.87,0,0,0-.32-5.77,2.15,2.15,0,0,1,0-.71,8.63,8.63,0,0,0,.08-2.27,31.74,31.74,0,0,1,.16-4.57c0-.29,0-.65.37-.79a.54.54,0,0,1,.23.4c.19,1.65.4,3.29.51,4.94a2.33,2.33,0,0,1-.07.79,11.52,11.52,0,0,0-.07,2.69c0,5.22,0,10.44,0,15.65C105,199.53,105.11,200,104.77,200.37Z" transform="translate(-0.39 -3.07)"/><path class="cls-12" d="M95.56,117.42a1.87,1.87,0,0,1,.31,1.2V149a4.81,4.81,0,0,1-.31,1.68c-.2-1.85-.42-3.69-.61-5.54-.13-1.23-.26-2.46-.35-3.69a119.28,119.28,0,0,1-.3-12.25,56.82,56.82,0,0,1,.74-8.23C95.25,119.76,95.39,118.59,95.56,117.42Z" transform="translate(-0.39 -3.07)"/><path class="cls-13" d="M94.6,174.81V170.2a5.26,5.26,0,0,1,.31-1.76,1.23,1.23,0,0,1,.29.8c.38,2.6.87,5.18,1.39,7.76a2.08,2.08,0,0,1,0,.93,5.41,5.41,0,0,0-.19,1.33c0,5.67,0,11.35,0,17,0,.43.21,1-.39,1.24a10.6,10.6,0,0,1-1-4.21C94.43,187.17,94.62,181,94.6,174.81Z" transform="translate(-0.39 -3.07)"/><path class="cls-12" d="M96.18,111.37l-1.26,4.78c-.48-.11-.4-.52-.4-.83,0-3.15,0-6.3,0-9.46,0-1,0-2.06,0-3.09a1.6,1.6,0,0,1,.08-.78,64.87,64.87,0,0,1,.21-7.11c.12-2,0-3.95.18-5.92a9.79,9.79,0,0,0-.28-2.73c-.24-1.42-.27-1.42,1.16-1.39a1.3,1.3,0,0,1,.25,1c0,3.92,0,7.83,0,11.75,0,.48-.13.94-.1,1.42-.13,1-.65,1.91-.83,2.93l.52-.7c.59.15.55.65.54,1.07,0,2.9.13,5.8-.08,8.7A1.27,1.27,0,0,0,96.18,111.37Z" transform="translate(-0.39 -3.07)"/><path class="cls-14" d="M108.9,109.64a24,24,0,0,1-.63-3.45c-.27-2-.63-3.94-.74-5.92a39.07,39.07,0,0,1-.09-7.57c.16-1.14.1-2.31.15-3.47.07-1.39.18-2.78.19-4.18,0-.42.17-.57.57-.54.24,0,.47,0,.71,0a1.41,1.41,0,0,1,.26,1q0,11.37,0,22.76C109.31,108.81,109.36,109.31,108.9,109.64Z" transform="translate(-0.39 -3.07)"/><path class="cls-2" d="M33.87,16.31a12.08,12.08,0,0,1,1.94-2.71,18.89,18.89,0,0,1,4-4.13c.17-.11.36-.2.54-.3.45-.26.63-.09.63.38a40.39,40.39,0,0,1-.3,5.82,13.58,13.58,0,0,0,0,1.43,20.22,20.22,0,0,1-4.26,0,14.13,14.13,0,0,1-2-.16C34.23,16.6,33.9,16.71,33.87,16.31Z" transform="translate(-0.39 -3.07)"/><path class="cls-15" d="M108.9,109.64a4.39,4.39,0,0,0,.17-1.25q0-11.92,0-23.86c1.43,0,1.43,0,1.43,1.31,0,2.35-.1,4.7-.21,7s0,4.75-.12,7.12c-.3,4.7-.06,9.4-.14,14.1a1,1,0,0,1-.27.83C109.51,113.13,109,111.41,108.9,109.64Z" transform="translate(-0.39 -3.07)"/><path class="cls-7" d="M15,41.6c3.1-.7,6.21-1.31,9.36-1.77,4.92-.7,9.86-.43,14.8-.43,1.51,0,3,.28,4.56.27a22.55,22.55,0,0,1,3-.1,13.29,13.29,0,0,1-3.32.41c-2.8.31-5.62.4-8.43.54-3.24.18-6.47.44-9.71.48a17,17,0,0,0-4.54.45.53.53,0,0,1-.2.13,18.39,18.39,0,0,1-4.56.52A.92.92,0,0,1,15,41.6Z" transform="translate(-0.39 -3.07)"/><path class="cls-16" d="M99.53,200.22l-1-.48a1.85,1.85,0,0,1-.25-1.13,54.85,54.85,0,0,1,.16-6.15c0-.31,0-.64.32-.84a.31.31,0,0,1,.23.29c0,.76,0,1.51.1,2.15.11-.2-.07-.52-.08-.84a66.82,66.82,0,0,0-1.1-11,2.34,2.34,0,0,1,0-.95,5.58,5.58,0,0,0,.06-1.73q0-6.14,0-12.26c0-.54-.14-1.19.54-1.51.41,2.87.6,5.78,1.1,8.65a6.74,6.74,0,0,1,0,1.19c.19,7.72,0,15.45.09,23.18A2.05,2.05,0,0,1,99.53,200.22Z" transform="translate(-0.39 -3.07)"/><path class="cls-17" d="M106.52,119.33a4.51,4.51,0,0,0,.16-1.32V102.76c0-.31-.11-.64.14-.92a13.91,13.91,0,0,1,.46,2.78c.28,1.74.53,3.47,1,5.17a2.54,2.54,0,0,1,0,.48c-.26.27-.15.6-.15.91v16.16a5.51,5.51,0,0,1-.31,1.84c-.32-.31-.27-.74-.32-1.12-.36-2.56-.78-5.11-1.13-7.68A1.13,1.13,0,0,1,106.52,119.33Z" transform="translate(-0.39 -3.07)"/><path class="cls-3" d="M93.65,7a59.38,59.38,0,0,1,2.18,8.61c.24,1.26.35,2.55.51,3.82.08.57-.06.85-.74.84-1.9,0-1.83,0-2.14-1.91a64.34,64.34,0,0,1-.72-7A6.35,6.35,0,0,1,93.65,7Z" transform="translate(-0.39 -3.07)"/><path class="cls-18" d="M111.14,191.64c.37-.32.31-.76.31-1.18V167.29c0-.31-.11-.64.15-.91a1.23,1.23,0,0,1,.17.6c.1,2.07.16,4.15.32,6.21.19,2.47.34,4.93.5,7.39.1,1.46.12,2.94.28,4.4.16,3.33.1,6.66.09,10,0,.57.13,1.23-.55,1.59Q111.77,194.11,111.14,191.64Z" transform="translate(-0.39 -3.07)"/><path class="cls-19" d="M96,197.53c.26-.27.14-.61.14-.91q0-8.64,0-17.28a3,3,0,0,1,.3-1.52.86.86,0,0,1,.39.66q.54,2.63,1.05,5.27a2,2,0,0,1,0,.87,11.59,11.59,0,0,0,0,2.28c0,3.51,0,7,0,10.52a1.9,1.9,0,0,1-.41,1.55A3.85,3.85,0,0,1,96,197.53Z" transform="translate(-0.39 -3.07)"/><path class="cls-3" d="M30.56,62.4l-.18,0c-.51.21-1.08-.08-1.59.17h0c-1.9,0-3.77.33-5.65.43a53,53,0,0,1-5.34.36A39.72,39.72,0,0,1,23,62.11,59.25,59.25,0,0,1,32.54,61c2.67-.13,5.33-.49,8-.44,1,0,2,.11,3.11.17-.56.41-1.13.22-1.66.32s-1.16-.18-1,.74c0,.22-.22.19-.36.19l-1.51,0c-.67-.34-1.33.07-2,0-1.55,0-3.09.2-4.64.27l-.17,0C31.73,62.46,31.12,62.22,30.56,62.4Z" transform="translate(-0.39 -3.07)"/><path class="cls-20" d="M102.23,84.69V98.94c0,.28-.1.59.14.83a1,1,0,0,1,.22,1,57,57,0,0,1-1,6.37c-.07.3,0,.78-.55.77-.42-.37-.33-.87-.32-1.33,0-3.53-.08-7.06.08-10.59a90.26,90.26,0,0,0,.32-10.66C101.1,84.3,101.8,84.78,102.23,84.69Z" transform="translate(-0.39 -3.07)"/><path class="cls-21" d="M99.53,200.22q0-11.86,0-23.73c0-.3-.12-.64.16-.9a4.18,4.18,0,0,1,.27,1.75c.21,1.58.22,3.19.37,4.77.12,1.33.31,2.65.48,4,.17,4.33,0,8.67.08,13a1.79,1.79,0,0,1-.25,1.29Z" transform="translate(-0.39 -3.07)"/><path class="cls-14" d="M99.21,99.46a52.42,52.42,0,0,1-1.44,6.19c-.53-.11-.54-.55-.54-.92a69.67,69.67,0,0,1,.12-7.51.39.39,0,0,0,0-.3,49.47,49.47,0,0,0,1.13-7.15c.12-1.55.12-3.1.29-4.65,0-.22,0-.43.32-.43a1.4,1.4,0,0,1,.25,1c0,4.05,0,8.09,0,12.14C99.31,98.41,99.2,98.93,99.21,99.46Z" transform="translate(-0.39 -3.07)"/><path class="cls-22" d="M104.77,200.37q0-9.39,0-18.8c0-.3-.13-.64.16-.89.46.12.36.53.39.84.24,2.41.47,4.83.65,7.24a91.87,91.87,0,0,1,.42,10c-.14.5,0,1.06-.36,1.51A2.06,2.06,0,0,1,104.77,200.37Z" transform="translate(-0.39 -3.07)"/><path class="cls-8" d="M96,99c-.28-.26-.15-.6-.15-.9q0-6.61,0-13.24a7,7,0,0,0,1.57-.15c.5-.14.7.1.64.65-.18,1.51-.28,3-.47,4.54A48.42,48.42,0,0,1,96,99Z" transform="translate(-0.39 -3.07)"/><path class="cls-18" d="M95.87,154.45a4.19,4.19,0,0,0-.16,1.32v11.44c0,.31.11.64-.15.91-.42-.18-.39-.59-.45-.94a41.36,41.36,0,0,1-.59-6.38,1.49,1.49,0,0,0-.08-.78v-12.7c0-.28-.1-.59.16-.82a27.38,27.38,0,0,1,.56,3.38C95.42,151.4,95.64,152.92,95.87,154.45Z" transform="translate(-0.39 -3.07)"/><path class="cls-3" d="M31.35,20.63a35.23,35.23,0,0,1-2.58,3.95,3.39,3.39,0,0,1-1.1,1.28,26.73,26.73,0,0,0-2.39,2.37,4,4,0,0,1-1.59,1.6c-.58.61-1.15,1.23-1.74,1.83a48.83,48.83,0,0,0-5.15,6.05c-.43.62-1,1.16-1.4,1.8a2.7,2.7,0,0,0-.58,2.07c-1.69-.39-1.56-1.31-.77-2.42a27.28,27.28,0,0,1,5.2-5.48,43.45,43.45,0,0,0,5.05-5.1c1.69-1.91,3.25-3.93,5-5.82A12.77,12.77,0,0,1,31.35,20.63Z" transform="translate(-0.39 -3.07)"/><path class="cls-23" d="M99.21,99.46a1.8,1.8,0,0,1-.16-1V84.69c.53,0,1.16-.17,1.56.06s0,1,0,1.47c.07,1,0,2,0,2.93a41.59,41.59,0,0,1-1.29,10.12A.62.62,0,0,1,99.21,99.46Z" transform="translate(-0.39 -3.07)"/><path class="cls-24" d="M98.56,165.75a2.92,2.92,0,0,0-.31,1.51q0,6.57,0,13.15c0,.3.11.64-.14.91-.34-.12-.37-.43-.43-.7-.29-1.42-.53-2.86-.82-4.28a.74.74,0,0,1,.12-.74,9.84,9.84,0,0,0,.16-2.36c0-3.55,0-7.09,0-10.64,0-.28-.11-.59.14-.83A22.77,22.77,0,0,1,98.56,165.75Z" transform="translate(-0.39 -3.07)"/><path class="cls-24" d="M97.29,126.32c-.26-.27-.14-.61-.14-.91q0-6.21,0-12.4a1.76,1.76,0,0,0-.16-1c.19-1.52.81-2.94,1.13-4.43.35,0,.35.34.42.58a4.3,4.3,0,0,1,.13,1.34c0,3,0,5.91,0,8.86a3.94,3.94,0,0,0,.06,1,14.88,14.88,0,0,1-.45,2.88c-.17,1.09-.38,2.18-.55,3.27C97.65,125.83,97.66,126.18,97.29,126.32Z" transform="translate(-0.39 -3.07)"/><path class="cls-25" d="M101.91,175.9a4.19,4.19,0,0,0-.16,1.32c0,2.42,0,4.84,0,7.26,0,.28.1.59-.17.81a22.48,22.48,0,0,1-.61-4c-.22-2.74-.51-5.47-.91-8.19a41.66,41.66,0,0,1-.7-5.45c0-.34,0-.68,0-1s0-.53.31-.64c.41.06.43.43.5.72.66,2.75,1.33,5.5,1.87,8.28C102.09,175.31,102.18,175.63,101.91,175.9Z" transform="translate(-0.39 -3.07)"/><path class="cls-26" d="M109.7,199.6a4.27,4.27,0,0,1-.17-1.24q0-4.11,0-8.22a6.61,6.61,0,0,1,.31-2,63,63,0,0,0,2.24,8.53c0,.08,0,.15.08.22.48,1.43.5,1.46-.83,2.17A3.24,3.24,0,0,1,109.7,199.6Z" transform="translate(-0.39 -3.07)"/><path class="cls-27" d="M100.79,96c.28.26.16.6.16.9,0,3.35,0,6.69,0,10a1.81,1.81,0,0,0,.16,1,.74.74,0,0,1,.12.74c-.29,1.46-.65,2.91-1,4.37-.07.28-.12.64-.57.59a1.08,1.08,0,0,1-.24-.88c0-3.52-.11-7,.08-10.56.14-1.52.63-3,.9-4.46A6.51,6.51,0,0,1,100.79,96Z" transform="translate(-0.39 -3.07)"/><path class="cls-28" d="M99.52,102.15a4.23,4.23,0,0,1,.17,1.33q0,4.63,0,9.29c0,.28-.1.59.14.83s.16.49.1.74c-.32,1.53-.7,3-1,4.56a.73.73,0,0,1-.36.58c-.24-.24-.14-.55-.14-.83q0-4.7,0-9.41a4,4,0,0,0-.3-1.67Z" transform="translate(-0.39 -3.07)"/><path class="cls-29" d="M100.64,200.38V187c0-.3-.12-.64.17-.9a25.79,25.79,0,0,1,.73,4,41.74,41.74,0,0,1,.69,7.49,6.53,6.53,0,0,1-.36,1.92A1.16,1.16,0,0,1,100.64,200.38Z" transform="translate(-0.39 -3.07)"/><path class="cls-26" d="M97.31,96.92c.25.24.14.54.14.82q0,3.41,0,6.81c0,.4,0,.8.31,1.1-.47,1.92-1,3.83-1.59,5.72-.25-.24-.15-.55-.15-.83V102.3c0-.39,0-.8-.31-1.09A24.58,24.58,0,0,0,97.31,96.92Z" transform="translate(-0.39 -3.07)"/><path class="cls-4" d="M97.46,199a9.84,9.84,0,0,0,.16-2.36v-11.2c0-.31-.11-.64.14-.91a.55.55,0,0,1,.37.47,43.12,43.12,0,0,1,.83,6.3.56.56,0,0,1-.08.38,11.24,11.24,0,0,0-.28,2.71c-.09,1.79,0,3.59,0,5.38Z" transform="translate(-0.39 -3.07)"/><path class="cls-30" d="M94.6,102c.21,4.5.15,9,.16,13.5,0,.23-.06.48.16.66-.24,1.58-.49,3.16-.71,4.74-.16,1.2-.29,2.39-.4,3.59a41.91,41.91,0,0,0-.23,4.34,22.21,22.21,0,0,1,0-3.91,3.35,3.35,0,0,0,.08-.54c-.1-2.27.14-4.54.19-6.8.07-2.61.2-5.21.32-7.81.1-2.37.29-4.73.29-7.1C94.44,102.43,94.37,102.17,94.6,102Z" transform="translate(-0.39 -3.07)"/><path class="cls-27" d="M106,200.22c0-.48-.1-1,.17-1.43a41,41,0,0,0,0-4.83c-.06-2.48-.24-5-.43-7.43a1.46,1.46,0,0,1,.13-.85.32.32,0,0,1,.39-.13c.46.6.34,1.35.49,2,.26,1.25.41,2.53.7,3.78a.64.64,0,0,1,0,.6c-.2.15-.16.37-.16.58q0,3.48,0,7c0,.21,0,.43.16.58C107,200.38,106.52,200.18,106,200.22Z" transform="translate(-0.39 -3.07)"/><path class="cls-31" d="M112.41,196.57a2.72,2.72,0,0,0,.31-1.43V185.8c0-.28-.1-.58.15-.82a13.74,13.74,0,0,1,.44,2.93,51,51,0,0,1,.52,6.17,13.87,13.87,0,0,1-.3,2.57,2.78,2.78,0,0,1-.67,1.23Z" transform="translate(-0.39 -3.07)"/><path class="cls-4" d="M99.69,166.05c-.43.47.1,1.13-.33,1.6a7.34,7.34,0,0,1-.4-2c-.3-1.64-1.14-3.09-1.56-4.68-.1-.37-.18-.76-.27-1.14.29-.38.13-.88.33-1.28.36,0,.39.31.47.54.74,2,1.3,4.11,1.85,6.19A.69.69,0,0,1,99.69,166.05Z" transform="translate(-0.39 -3.07)"/><path class="cls-3" d="M111.61,10.6c.46,2.21.72,4.41,1,6.62a28.25,28.25,0,0,0,.28,2.89c.07.34,0,.68-.49.67s-.46-.33-.46-.65V18.55a58.89,58.89,0,0,0-.31-6.77A11.61,11.61,0,0,1,111.61,10.6Z" transform="translate(-0.39 -3.07)"/><path class="cls-3" d="M2.43,55.9a2.58,2.58,0,0,0,1.74.47c.85.05,1.48.32,1.58,1.28a14.79,14.79,0,0,0-3.42-1.14c-.55-.08-.87-1.28-.5-1.7a36.06,36.06,0,0,1,4.83-4.66A1.4,1.4,0,0,1,7,50l-.66.78c-.76.94-1.74,1.68-2.53,2.59A4.74,4.74,0,0,0,2.43,55.9Z" transform="translate(-0.39 -3.07)"/><path class="cls-7" d="M33.87,16.31c.12.18.31.17.49.17,1.83,0,3.66.26,5.49.16a1.24,1.24,0,0,1,.84.16v.31c-1.81.27-3.64.27-5.44.62-.2,0-.43.08-.57-.14A6,6,0,0,1,36.06,17a7.55,7.55,0,0,1-2.13-.12c-.14,0-.36,0-.36-.2S33.73,16.38,33.87,16.31Z" transform="translate(-0.39 -3.07)"/><path class="cls-3" d="M21.48,70.84l4.08,1.25,1.63.5c.11.54-.38.47-.64.63l-.94.33c0-.49-.41-.64-.78-.77A15.55,15.55,0,0,1,21.48,70.84Z" transform="translate(-0.39 -3.07)"/><path class="cls-3" d="M9.87,59.26c2,0,3.92-.54,6.16-.27a18,18,0,0,1-3.29,1.37l.34-.42A21.81,21.81,0,0,1,9.87,59.26Z" transform="translate(-0.39 -3.07)"/><path class="cls-3" d="M11.79,60.83a5,5,0,0,0,1.45,1.48,16.62,16.62,0,0,1,1.42,1.36A5,5,0,0,1,11.38,62C10.87,61.54,11.14,61.05,11.79,60.83Z" transform="translate(-0.39 -3.07)"/><path class="cls-3" d="M17,65.43a8.92,8.92,0,0,0,1.74,3.07c.13.19.35.31.36.58a18,18,0,0,1-2.83-2.61c-.52-.65-.46-.73.37-.89A1.84,1.84,0,0,0,17,65.43Z" transform="translate(-0.39 -3.07)"/><path class="cls-3" d="M15.91,42.1c1.29.07,2.49-.47,3.75-.58.34,0,.67-.07,1-.07,0,1-.81.46-1.25.62-.93-.11-1.83.25-2.76.16C16.41,42.21,16.13,42.31,15.91,42.1Z" transform="translate(-0.39 -3.07)"/><path class="cls-7" d="M18.77,42.26a9.63,9.63,0,0,1-2.86.9c-.55.18-1.1.58-1.75.33a11.48,11.48,0,0,1,3.71-1.08C18.16,42.35,18.44,42.13,18.77,42.26Z" transform="translate(-0.39 -3.07)"/><path class="cls-7" d="M186,46.67h3.66a33.7,33.7,0,0,1,3.75.34c.68.08,1.12.41,1,1.22a5,5,0,0,0,0,1.34c.12.82-.37,1-1,1.06-1.16,0-2.31.17-3.47.2a53.45,53.45,0,0,0-7.36.6c-.5.08-1-.15-1.52.17-2.61,0-5.23.15-7.84.19-2.93,0-5.85.26-8.76.46-2.6.17-5.19.39-7.79.63-1.88.17-3.76.42-5.64.61a2.39,2.39,0,0,1-1.69-.26,1.69,1.69,0,0,0-1-.2c-8.5,0-17-.09-25.51.05-3.28,0-6.56,0-9.83.14-1.19.05-2.37.12-3.56.13a1,1,0,0,1-.62-.2l1.79-.63V52.4c-1.14,0-2.28,0-3.42,0-2.67.1-5.34-.16-8-.19-1.89,0-3.78-.22-5.69-.18l3,.56a7.63,7.63,0,0,1-2.4.64c.58.46,1.28.26,1.92.35,2,.26,4.05.6,6.1.74s4.08.43,6.12.58c1.39.1,2.78.24,4.17.35,2.28.18,4.56.35,6.83.61,1.33.16,2.67.22,4,.35.84.08,1.67.21,2.5.32.15,0,.36,0,.35.21s-.18.24-.35.26c-.78.11-1.56.26-2.34.31-2.82.18-5.65.18-8.48.17-3.87,0-7.74.06-11.6,0-2.51,0-5-.27-7.53-.11a38.41,38.41,0,0,1-7.35-.63c-2.47-.31-5-.65-7.44-.84-2.7-.21-5.38-.57-8.08-.76a19.3,19.3,0,0,0-5.68.29,23.81,23.81,0,0,1-6.74.19l-.87,0h-46c0-.38.28-.29.47-.31,2.8-.27,5.6-.54,8.4-.79,1.54-.13,3.1-.2,4.64-.33,2.2-.19,4.4-.42,6.6-.61,1.41-.13,2.83-.22,4.24-.34,3.36-.29,6.72-.4,10-.92a40.08,40.08,0,0,1,6.3-.55,37.86,37.86,0,0,1,4.26-.09,41.27,41.27,0,0,0,5.45-.06c2.15,0,4.3-.35,6.45-.41,1.69-.06,3.37-.21,5-.36,2-.19,4.07-.41,6.11-.6a9.75,9.75,0,0,1,2.83-.15c4.22.95,8.47.28,12.7.41s8.48.16,12.72,0c3.52-.15,7,0,10.54-.16,1.8-.1,3.59-.06,5.55-.14-.68.55-1.47.5-2.12,1a11.8,11.8,0,0,0,2.93-.06c.54-.15,1.08-.33,1.65-.46a19.37,19.37,0,0,1,2.83-.22c1.42-.1,2.85-.15,4.27-.25,2.8-.19,5.62-.22,8.42-.58a24.55,24.55,0,0,1,2.84-.14c2.72-.05,5.43-.27,8.14-.39,2.5-.1,5-.27,7.49-.47a44.57,44.57,0,0,0,5-.45,1.09,1.09,0,0,0,.65-.25,2.17,2.17,0,0,1,1.86-.67c1.41,0,2.8-.09,4.2-.19C178.14,46.71,182.08,46.63,186,46.67Z" transform="translate(-0.39 -3.07)"/><path class="cls-7" d="M143.33,34.24c-2.82.18-5.54.53-8.27.71-2.36.14-4.72.34-7.09.47-2.21.12-4.42.21-6.63.32-4,.2-8,.35-12,.27-1.26,0-2.5.06-3.75.15a42.28,42.28,0,0,1-5.84-.26c-1.63-.11-3.27-.12-4.9-.19a2.09,2.09,0,0,1-1-.1l6.42-.43V35c-8-.11-15.89-.1-23.82.57.73.38,1.5,0,2.22.1,0,.23-.09.23-.15.23-2.57-.11-5.13.11-7.69.19-4,.12-8,.25-12,.34-1,0-1.95.5-3,.44-2.53-.15-5.06-.16-7.59-.35s-4.8-.52-7.2-.78a.86.86,0,0,1-.59-.3c3.63-1,7.36-.46,11.09-1.22a6.6,6.6,0,0,0-1.75-.4c-2.25-.33-4.48.13-6.72,0-.82,0-1.64,0-2.46,0-.25,0-.54.11-.76-.25a11.31,11.31,0,0,1,2.26-.2,3.51,3.51,0,0,0-1.52-.41c1.92-.4,3.86-.59,5.79-.93l-9.4.81c.25-.46.65-.26,1-.32,2.57-.53,5.17-.91,7.77-1.24,2.45-.31,4.89-.71,7.35-.91,1.65-.14,3.31-.26,5-.39,4.61-.35,9.22-.52,13.84-.43a59.52,59.52,0,0,1,7.29.8.27.27,0,0,1,.15.05c1.79,1.26,3.94.54,5.88,1,.37.09.78,0,1.17.13.19.07.5.1.61,0,.82-.78,1.69-.27,2.54-.14a11.62,11.62,0,0,0,2,.19c2.51-.07,5,.15,7.53.19,2.34,0,4.69.18,7,.3,2.81.14,5.63.31,8.44.47,2.6.16,5.2.33,7.8.48,2.76.17,5.52.34,8.29.48,2.26.12,4.53.19,6.79.33,1.74.11,3.48.08,5.22.12A1.07,1.07,0,0,1,143.33,34.24Z" transform="translate(-0.39 -3.07)"/><path class="cls-7" d="M194.43,68a7.1,7.1,0,0,1-2.47.6,14.13,14.13,0,0,1-2.43.18,47.28,47.28,0,0,0-6.45.54,5,5,0,0,0,2.08.41c3,0,5.92,0,8.88,0a1.69,1.69,0,0,1,1,.19,20.92,20.92,0,0,1-2.54.38l1.91.25a21.17,21.17,0,0,1-4.19.6c-2.17.25-4.34.43-6.51.63-.92.08-1.85.11-2.76.13-1.64,0-3.27.17-4.91.22q-7.53.25-15.07.12c-3.55-.07-7.09,0-10.63-.18-2.88-.14-5.76,0-8.64-.13-3.09-.14-6.17-.21-9.26-.33-2.1-.08-4.21-.19-6.31-.31l-8.2-.48c-2.58-.14-5.15-.33-7.73-.47l-8.92-.5c-1.32-.07-2.63-.07-4-.13,0,.07,0,.14,0,.16.34.29.81.59.54,1.1s-.68,0-1,0c-3.15-.44-6.28-.95-9.43-1.38-2.31-.32-4.64-.56-7-.83l-7.83-.93c-2.11-.24-4.23-.45-6.35-.66s-4.5-.42-6.75-.62c-.86-.08-1.74-.12-2.6-.14-1.74,0-3.48-.16-5.22-.22-3.23-.12-6.45-.17-9.68-.12-2.81,0-5.62-.32-8.44-.19a7.57,7.57,0,0,1-1.37-.22A51.8,51.8,0,0,1,39,65.43,48,48,0,0,0,46,64.72a12.06,12.06,0,0,1,3.75-.31c-1.88.37-3.7.92-5.56,1.39.2.21.44.11.64.11,2.44,0,4.87,0,7.31,0,3,.06,6,.15,8.94.32,2.81.15,5.62.34,8.42.64,3.23.35,6.48.59,9.71,1.06,2.31.34,4.64.55,7,.83,1.25.15,2.51.28,3.75.51a2.13,2.13,0,0,0,1.77-.41,1.59,1.59,0,0,1,1.69-.28c1.58.61,3.17.23,4.76.06.76-.08,1.53-.14,2.28-.17,2.06-.07,4.1-.3,6.16-.38s4.42-.19,6.63-.32c4.17-.24,8.34-.37,12.51-.25,1.3,0,2.55-.4,3.83-.21a4.14,4.14,0,0,1,2.41-.18c1.77.09,3.53.28,5.31.26,1,0,2,.19,3,.19a.75.75,0,0,1,.76.44,36,36,0,0,1-6.45.34c7.65,0,15.29-.08,23.08-.39-.68-.11-1.25.21-1.74-.19a.55.55,0,0,1,.44-.14c2.19.12,4.38-.11,6.57-.18,4.28-.13,8.56-.2,12.83-.38a34.15,34.15,0,0,1,4.19-.37c3,.25,5.95.13,8.9.59,1.66.26,3.34.34,5,.51A2.4,2.4,0,0,1,194.43,68Z" transform="translate(-0.39 -3.07)"/><path class="cls-7" d="M40.85,80.07c-1.26,0-1.4.09-1.91,1.57a24.9,24.9,0,0,0-2.74-.24c-1.83,0-3.65.24-5.47.21-.16,0-.32,0-.48,0s-.28,0-.33-.17.09-.3.22-.38a3.17,3.17,0,0,1,1-.27c4.85-.9,9.71-1.66,14.61-2.25q5.84-.7,11.69-1.07c1.77-.11,3.54-.26,5.32-.21a18,18,0,0,0,5.11-.56c2.26-.58,4.6-.66,6.88-1.14a7.91,7.91,0,0,1,1.54,0c.1,0,0-.17,0-.08s-.07.09-.12.09c-2.49,0-5,0-7.47,0-4-.06-8,.11-12,.36a208,208,0,0,0-28.79,3.84c-.51.1-1,.33-1.55,0-.14-.06-.14-.19-.16-.31a20.2,20.2,0,0,1,3.59-.79q4.38-.81,8.78-1.5c2.17-.34,4.36-.62,6.55-.9s4.27-.53,6.41-.77c1.3-.14,2.61-.27,3.93-.34,2.94-.16,5.88-.43,8.83-.53,1.13,0,2.26,0,3.4-.11,3.69-.23,7.4-.22,11.09-.13,1.88,0,3.75.06,5.62.14,2.66.11,5.32.25,8,.48,3.22.29,6.44.23,9.65.33,4,.12,8,0,12,.16,2.79.09,5.59.15,8.38.3s5.82.39,8.73.66c.59,0,1.2.08,1.79.16,0,.3-.23.27-.39.32a43.15,43.15,0,0,1-7.64,1.56,1.86,1.86,0,0,0-1.3.51,1.79,1.79,0,0,1-1.26.57c-2,.2-4.09.35-6.13.51-2.72.22-5.44.05-8.15.18a39.49,39.49,0,0,1-7.13-.33,7.6,7.6,0,0,0-1.08.1,47.74,47.74,0,0,1-6.33-.09c-.76-.1-1.52-.07-2.28-.15-1.88-.2-3.78-.2-5.66-.37s-3.5-.26-5.22-.58a3.17,3.17,0,0,0-.87,0c-1.78.13-3.56-.18-5.35,0a67.06,67.06,0,0,0-8.48,1.06,23.56,23.56,0,0,1-4.67.56,53.08,53.08,0,0,0-8,.32c-1.47.22-2.94.43-4.42.61a10.14,10.14,0,0,1-1.35,0c0-.36.35-.38.59-.43,3.39-.67,6.77-1.46,10.19-2,.08,0,.15,0,.13,0-1.06.18-2.2.28-3.34.36l-8,.59-5.06.38A1.21,1.21,0,0,1,40.85,80.07Z" transform="translate(-0.39 -3.07)"/><path class="cls-7" d="M118.91,23.34l2,0c2,0,3.95,0,5.93-.14a35,35,0,0,1,7.22.44,4.58,4.58,0,0,0,1.16-.17,36.74,36.74,0,0,1,5.35,0c2.62.13,5.22.43,7.84.6,1.23.07,2.45.2,3.68.31a40.47,40.47,0,0,0,6.5.49A74.62,74.62,0,0,0,169,23.72a20.94,20.94,0,0,1,4.67-.57,49.39,49.39,0,0,0,8-.32,40.59,40.59,0,0,1,5.92-.64,34.11,34.11,0,0,1-4.35,1c-5,1.05-10,2.07-15.06,3.12a20.43,20.43,0,0,1-3.37.76,46.53,46.53,0,0,0-5,.75c-3.27.4-6.55.54-9.84.67s-6.6-.12-9.89-.1c-1.55,0-3.12,0-4.67-.11-4.57-.22-9.15-.06-13.72-.18-3-.08-6-.17-8.94-.31-2.33-.1-4.67-.29-7-.47-1.28-.1-2.55-.26-3.92-.41a1.71,1.71,0,0,1,1-.44,38.18,38.18,0,0,1,7-1.38,1.82,1.82,0,0,0,1.22-.51,2.18,2.18,0,0,1,1.58-.59c2-.17,4-.44,6-.5C118.78,23.45,118.85,23.38,118.91,23.34Z" transform="translate(-0.39 -3.07)"/><path class="cls-7" d="M2.43,55.9a.56.56,0,0,1-.1-.65,13.64,13.64,0,0,1,4-4.45A3.29,3.29,0,0,0,9,50.7a164.33,164.33,0,0,1,16.81-4c3.28-.61,6.59-1.06,9.88-1.57,1.09-.16,2.2-.21,3.3-.34.5-.06,1.08-.06,1.2-.76.08-.47.47-.35.76-.34,3.07,0,6.13.25,9.2.15a2.77,2.77,0,0,0,2.18-.74.61.61,0,0,1,.65-.2,9.67,9.67,0,0,0,2.84.14c3.31,0,6.61.15,9.91.22,1.9,0,3.81-.05,5.7.13s3.86.07,5.78.14a9.38,9.38,0,0,1,1.47.24c-1.17.07-2.31.33-3.49.31,6,.55,12,1.07,18,1.86a1.45,1.45,0,0,1-.75.28,39.71,39.71,0,0,1-8.37-.13,24.27,24.27,0,0,0-2.83-.14c-1.62,0-3.22-.16-4.83-.22-4.34-.16-8.68-.17-13-.13-3,0-6,.1-8.94.33a68.77,68.77,0,0,0-13.18,1.8c-.59.16-.75-.37-1.26-.29q-3.75.54-7.48,1.13-5.07.8-10.09,1.8A131.24,131.24,0,0,0,9.7,53.49c-2.25.68-4.47,1.44-6.65,2.32A3.09,3.09,0,0,1,2.43,55.9Z" transform="translate(-0.39 -3.07)"/><path class="cls-7" d="M194.08,37.31a12.18,12.18,0,0,1-.32,4.12c-1.7.16-3.4.33-5.1.48l-6.83.62c-.71.06-1.42.07-2.13.15a43,43,0,0,1-6.81.17l-7.35-.32c-3-.14-6.07-.19-9.09-.34-2-.1-4.08,0-6.1-.14-2.3-.22-4.61,0-6.9-.16s-4.8-.07-7.21-.14c-.7,0-1.23-.53-1.91-.65-1-.19-2-.48-3.07-.74.13-.28.34-.19.49-.19.72,0,1.43,0,2.15,0,4.6.11,9.2-.17,13.8-.2,2.74,0,5.48-.2,8.23-.31,2.18-.08,4.37-.2,6.55-.32,2.55-.13,5.1-.28,7.65-.47q4.51-.33,9.05-.63c2.39-.16,4.78-.36,7.17-.48,2-.11,3.94-.29,5.92-.31A13.53,13.53,0,0,1,194.08,37.31Z" transform="translate(-0.39 -3.07)"/><path class="cls-7" d="M27.67,25.86a3.41,3.41,0,0,1,1.1-1.28c2.23-.16,4.45-.39,6.68-.44,1.64,0,3.26-.27,5.07-.18-.45-.25-.9-.14-1.14-.55a7.16,7.16,0,0,1,2.4-.74c-.48-.42-1.24-.64-.73-1.43a6.8,6.8,0,0,0,2.11.17c3.63,0,7.25,0,10.88,0,2.18,0,4.36.21,6.54.32a1.43,1.43,0,0,0,.36.13,39.63,39.63,0,0,1,4.75.19c3.3.16,6.59.24,9.89.34,1.48,0,3,0,4.43.11,2.77.14,5.54.24,8.3.36,1,0,2,.1,2.92.11a2.9,2.9,0,0,1,1.09.25,17.37,17.37,0,0,1-4.4,1.12,30.63,30.63,0,0,1-4.48-.28c-1.88-.2-3.75-.06-5.63-.13a35.9,35.9,0,0,0-7.24.7,15.64,15.64,0,0,0,3.76.23c-.23.64-.71.53-1.08.49a61,61,0,0,0-8.22-.3c-4.31.13-8.61.47-12.91.29-2-.08-3.91-.22-5.86-.12-2.83.15-5.66.05-8.48.16-2.37.1-4.75.19-7.11.33C29.67,25.79,28.67,25.83,27.67,25.86Z" transform="translate(-0.39 -3.07)"/><path class="cls-7" d="M46.83,62.49c3.69-.64,7.2-1.06,10.61-1.91,4.11-1,8.24-.52,12.36-.74l0,.28c-1.11.08-2.22.14-3.33.24s-2.23.24-3.38.36c.17.18.35.1.51.1,3.49,0,7,.28,10.45.37,1.66.05,3.33,0,5,.14,2.15.21,4.29,0,6.42.16s4.55,0,6.81.16c2.09.16,4.19,0,6.26.18,1.17.12,2.28.74,3.47,1,.47.09.93.23,1.4.35l0,.22c-1.86,0-3.71,0-5.57,0a27.82,27.82,0,0,0-5.47.25c1,.18,2,.34,2.94.55.3.06.92-.05.75.47s-.19,1.32-1.12,1.11c-1.1-.24-2.21-.48-3.32-.7-2.27-.46-4.52-1-6.81-1.32a9,9,0,0,0-3.39.08,1.75,1.75,0,0,1-.4,0c-2-.11-4,.16-5.93.19-1.11,0-2.22.16-3.32.12-3.24-.14-6.48-.27-9.71-.49L55,63.2c-2.39-.16-4.78-.4-7.17-.47A5.68,5.68,0,0,1,46.83,62.49Z" transform="translate(-0.39 -3.07)"/><path class="cls-7" d="M194.59,78.63c-.56.59-1.3.18-2,.37.81.7,1.91.52,2.85,1a4.77,4.77,0,0,1-2.48.74c.42.45.95.71.84,1.33-1.31,0-2.62-.1-3.93-.11-3.32,0-6.64.09-10,0-3.63-.13-7.26-.27-10.88-.48-2.23-.13-4.46-.31-6.7-.31-2.51,0-5-.15-7.52-.19s-5.21-.16-7.81-.33a26.56,26.56,0,0,1-4.55-.29,12.29,12.29,0,0,1,5.22-1.13c1,.08,2,.15,3.08.21,2,.11,3.9.15,5.85.15a38,38,0,0,0,7.67-.78,11.48,11.48,0,0,1,2.27,0c2.07,0,4.14.1,6.19,0,6.15-.39,12.31-.27,18.46-.31C192.34,78.46,193.45,78.74,194.59,78.63Z" transform="translate(-0.39 -3.07)"/><path class="cls-7" d="M26.55,77c.48-.46.21-.67-.27-.76s-1.07-.15-1.61-.22a5.89,5.89,0,0,1,2.17-.66c3.64-.81,7.3-1.51,11-2,2.81-.4,5.62-.79,8.44-1,2.3-.22,4.62-.38,6.93-.55,3.2-.22,6.4-.17,9.59-.08a54.88,54.88,0,0,1,7.78.53c-1.24.09-2.49.17-3.72.19-2.74,0-5.48.21-8.21.38-3.49.21-7,.59-10.44,1a7.81,7.81,0,0,0-1.56.3l7.83-.37a18.55,18.55,0,0,1-4.55.94,30.17,30.17,0,0,0-3.11.43c-1.76.28-3.54.47-5.32.58a4.9,4.9,0,0,0-1.26.12c-.36.11-.72.11-.87-.4s-.57-.37-.93-.31c-3.78.63-7.57,1.22-11.32,2A3.47,3.47,0,0,1,26.55,77Z" transform="translate(-0.39 -3.07)"/><path class="cls-3" d="M156,67.8h2.22v.14c-.76.12-1.52.28-2.29.35-2.89.29-5.81,0-8.7.2-3.25.19-6.5.05-9.75.13-1.16,0-2.29-.28-3.46-.23,2.32,0,4.6-.48,6.91-.55l-11.32-.51c-.18-.22-.43-.13-.66-.14-4.76-.16-9.51-.19-14.27-.16a1.9,1.9,0,0,1-.7-.11,1.57,1.57,0,0,1,.3,0c2.74-.05,5.49-.09,8.23-.16,7-.2,14-.16,21-.16h1.06c-1.26.62-2.49.07-3.59.59.21,0,.42,0,.64,0,2.4,0,4.78.22,7.17.36S153.56,67.88,156,67.8Z" transform="translate(-0.39 -3.07)"/><path class="cls-7" d="M195.19,27.77a5.22,5.22,0,0,1,.64,1.74c-5.13,0-10.26-.12-15.39.25A97.91,97.91,0,0,1,195.19,27.77Z" transform="translate(-0.39 -3.07)"/><path class="cls-7" d="M23.69,29.83a12.65,12.65,0,0,1,1.59-1.6c2.49-.15,5-.31,7.47-.45a9.46,9.46,0,0,1,1.59,0,10.83,10.83,0,0,1-2.68.55c-2.28.37-4.55.78-6.8,1.32A4.62,4.62,0,0,1,23.69,29.83Z" transform="translate(-0.39 -3.07)"/><path class="cls-7" d="M97.27,38.41c-6.92-.79-13.83-1.59-20.91-2.23C78,35.8,95.69,37.67,97.27,38.41Z" transform="translate(-0.39 -3.07)"/><path class="cls-7" d="M52.25,49.78c-3,.5-6,1-8.89,1.46-.08,0-.18-.09-.29-.14C43.7,50.69,51.26,49.63,52.25,49.78Z" transform="translate(-0.39 -3.07)"/><path class="cls-7" d="M190.92,52.27c.34-.11.63.08.94.16a22.57,22.57,0,0,1-4.08.76c-1.5.25-3,.42-4.52.62a1.42,1.42,0,0,1-.61-.05C185.41,53.22,188.19,52.91,190.92,52.27Z" transform="translate(-0.39 -3.07)"/><path class="cls-7" d="M192.36,34.15a6,6,0,0,1,2.21.38c.27.06.49.25.19.56h-3C191.92,34.63,192.37,34.54,192.36,34.15Z" transform="translate(-0.39 -3.07)"/><path class="cls-7" d="M41.46,68.46a4.28,4.28,0,0,1,.62,0c.27,0,.78-.13.74.17a.88.88,0,0,1-.86.75A9.87,9.87,0,0,1,40.28,69c-.16,0-.37-.13-.31-.37s.23-.19.38-.19Z" transform="translate(-0.39 -3.07)"/><path class="cls-7" d="M26.55,73.22c.2-.23.55-.29.64-.63l4.43-.51A30.46,30.46,0,0,1,26.55,73.22Z" transform="translate(-0.39 -3.07)"/><path class="cls-1" d="M32.46,62.24A6.53,6.53,0,0,1,34.61,62c1.31-.17,2.65-.18,4-.36.22,0,.51-.09.53.29C36.9,62.16,34.68,62.19,32.46,62.24Z" transform="translate(-0.39 -3.07)"/><path class="cls-3" d="M37.2,41c.56-.06,1.12-.36,1.83,0a5.31,5.31,0,0,1-1.83.12s-.06-.05,0-.08S37.19,41,37.2,41Z" transform="translate(-0.39 -3.07)"/><path class="cls-1" d="M30.56,62.4c.56-.31,1.16-.07,1.73-.14C31.74,62.6,31.14,62.35,30.56,62.4Z" transform="translate(-0.39 -3.07)"/><path class="cls-1" d="M28.79,62.59c.5-.35,1.06-.09,1.59-.17C29.88,62.75,29.31,62.49,28.79,62.59Z" transform="translate(-0.39 -3.07)"/><path class="cls-1" d="M37.2,41a.24.24,0,0,1,0,.12h-.84A1.36,1.36,0,0,1,37.2,41Z" transform="translate(-0.39 -3.07)"/><path class="cls-2" d="M26.39,79.75c2.12-.39,4.23-.82,6.35-1.18q3.76-.64,7.55-1.2c2.31-.35,4.63-.65,7-.93,1.3-.16,2.61-.25,3.93-.35,2.75-.22,5.5-.42,8.26-.63h.23c5.13-.21,10.27-.16,15.4-.15a15.71,15.71,0,0,1,1.75.22c-2.1.29-4,.76-5.87.93-1.54.14-3,.64-4.46.82a18.51,18.51,0,0,1-2.67.23c-2.14-.06-4.28.06-6.41.21-3.28.23-6.55.52-9.82.89-4,.45-8,1-11.94,1.63-1.88.3-3.74.68-5.61,1.12,1.34-.17,2.68,0,4-.07,1.63-.11,3.32-.49,4.89.36-.31,2.46.05,5-.3,7.41a.22.22,0,0,1,0,.08c-.2,1.75-1,2.19-2.62,1.39a7.1,7.1,0,0,1-2.45-2.2c-1.16-1.6-2.56-3-3.7-4.59S27.38,81.22,26.39,79.75Z" transform="translate(-0.39 -3.07)"/><path class="cls-2" d="M40.85,80.07c2.54-.21,5.08-.44,7.61-.63,1.71-.13,3.42-.18,5.12-.35,1.25-.12,2.52,0,3.77-.28a3.38,3.38,0,0,1,1.33.1L48.29,81a3.17,3.17,0,0,0-1,.3,7.57,7.57,0,0,1-3.21.12,9.28,9.28,0,0,1-1.87-.23A1.89,1.89,0,0,1,40.85,80.07Z" transform="translate(-0.39 -3.07)"/><path class="cls-1" d="M106.52,119.33c.11,1.83.47,3.62.72,5.43a43.75,43.75,0,0,1,.56,4.42,23.21,23.21,0,0,1,.45,3.42,52.89,52.89,0,0,1,.16,7.34,22.24,22.24,0,0,1-.61,4.51,1.56,1.56,0,0,1,0,.93,18.58,18.58,0,0,1-1.48,4.6,2.87,2.87,0,0,1-1.62,1.46,1.7,1.7,0,0,1-1.75-.95,18.34,18.34,0,0,1-1.16-2.65,26.38,26.38,0,0,1-1.89-6.27c-.18-3.36-.46-6.72-.32-10.08A22.44,22.44,0,0,0,99.9,128a33.61,33.61,0,0,1,.93-5.47,24.13,24.13,0,0,1,1-2.75,1.32,1.32,0,0,1,.59-.8c.36-.58.69-1.17,1.07-1.74.22-.33.36-.38.61.09.53,1,.59,2.1,1,3.09a1.45,1.45,0,0,1,.36.94,55.22,55.22,0,0,1,.82,11,50.21,50.21,0,0,1-.83,8.73,9.3,9.3,0,0,1-.72,2.18c-.21.33-.4.78-.86.7s-.46-.55-.53-.9c-.45-2.29-.63-4.62-.85-6.94s-.14-4.55-.16-6.82a33.91,33.91,0,0,1,.38-5.14c.12-.29.08-.64.4-.86.35.22.32.58.27.91a47.92,47.92,0,0,0-.23,8.88,59.08,59.08,0,0,0,.82,7.73c.07.4.15.78.22,1.18a55.22,55.22,0,0,0-.47-22.92,4,4,0,0,0-1,1.61,20,20,0,0,0-.7,2.11,38.09,38.09,0,0,0-1,7.21,35.77,35.77,0,0,0-.11,4.74c.22,3,0,6.09.86,9,.08.25.16.5.23.76.47,1.62,1.17,3.16,1.79,4.73a2.26,2.26,0,0,0,.25.49c.3.43.6.48.94,0a6.09,6.09,0,0,0,.53-1,31.59,31.59,0,0,0,1.9-8.89c.41-4.87-.41-9.65-1-14.44-.31-2.44-.74-4.86-1-7.32,0-.47,0-.94,0-1.42-.15-3.58-.36-7.15-.52-10.73-.2-4.5-.08-9-.09-13.49,0-1.72.3-3.45.46-5.17.27-.27.1-.73.51-1.06a24.64,24.64,0,0,0-.58,4.6c0,.33-.1.67-.1,1,0,2.23,0,4.45,0,6.67.07,3.11.13,6.22.33,9.32.16,2.31.21,4.63.47,6.92A26.09,26.09,0,0,0,106.52,119.33Z" transform="translate(-0.39 -3.07)"/><path class="cls-1" d="M107.48,192c-.29-1.47-.59-3-.87-4.43-.12-.63-.18-1.28-.27-1.92-.57-.63-.42-1.45-.5-2.19-.36-3.42-.34-6.86-.39-10.29a31.28,31.28,0,0,0-.53-4.72,90.83,90.83,0,0,0-3.15-14.67c-.12-.48-.33-.93-.41-1.42s.07-.58.47-.29a30,30,0,0,1,2.18,5.65c.31,1,.57,2,.86,3a28.37,28.37,0,0,1,.9,5.21,17.54,17.54,0,0,1,0-3.76c.07-2.06,0-4.12,0-6.18a18.34,18.34,0,0,1,.5-4.24A10.42,10.42,0,0,1,107.4,149c.23-.35.42-.74.88-.86.33.3-.17.4-.16.63a8.77,8.77,0,0,0-1.28,4,43.15,43.15,0,0,0-.15,6.33c0,7.3-.32,14.59-.15,21.89a58,58,0,0,0,.73,8c.15.9.26,1.82.45,2.71C107.77,191.89,107.66,191.94,107.48,192Z" transform="translate(-0.39 -3.07)"/><path class="cls-17" d="M108.28,148.1a9.26,9.26,0,0,0-1.76,3.5c-.55-.44-.32-1-.33-1.6a23.85,23.85,0,0,0,1.61-5.55c.41.52.27,1.14.32,1.73S107.93,147.49,108.28,148.1Z" transform="translate(-0.39 -3.07)"/><path class="cls-1" d="M106.06,185.61c-.1,2.34.31,4.65.3,7,0,1.79,0,3.58,0,5.37,0,.28.13.59-.14.82a65.6,65.6,0,0,0-.19-6.87c-.22-2.77-.37-5.55-.74-8.3a28.75,28.75,0,0,0-.34-2.94c0-2-.46-4-.5-6-.37-.2-.34-.57-.38-.9a71.17,71.17,0,0,0-1.68-9.62c-.29-1.16-.69-2.29-1.07-3.42a29.42,29.42,0,0,0-1.44-3.37c-.52-1.26-1.13-2.47-1.62-3.74a15,15,0,0,1-1-5.18c-.14-1.51-.29-3-.41-4.54-.1-1.18-.14-2.36-.19-3.54-.09-2.19-.11-4.39,0-6.58a48.9,48.9,0,0,1,.58-6.5,5.88,5.88,0,0,0,0-.94c.21-1.18.43-2.36.64-3.53l.63-3.31c.42-2,.85-3.92,1.27-5.88a50.67,50.67,0,0,0,1.29-5.71,30.75,30.75,0,0,0,.94-4.83,15.16,15.16,0,0,0,.31-3.29,7,7,0,0,0,.29-2.56,59.24,59.24,0,0,0,.21-6.25c-.07-1.31.3-2.6.31-3.92,0,1,0,2.06,0,3.08.08,2.88,0,5.76-.19,8.63a57.92,57.92,0,0,1-1.07,8.5,5.54,5.54,0,0,1-.22,2.18c-.27,1.35-.58,2.69-.88,4-.42,1.8-.75,3.61-1.15,5.41-.39,2-.81,4-1.07,6s-.56,4-.73,6.07a70,70,0,0,0-.16,8.57,86.84,86.84,0,0,0,.88,10.18,17.84,17.84,0,0,0,1.37,4.87c.53,1.36,1.22,2.64,1.79,4a46.8,46.8,0,0,1,3.13,12.86c.27,2.57.55,5.14.69,7.73.11,2.07.34,4.14.5,6.22A.83.83,0,0,1,106.06,185.61Z" transform="translate(-0.39 -3.07)"/><path class="cls-25" d="M105.24,141.09c.2-1.67.4-3.33.59-5a1.74,1.74,0,0,0,0-.39c-.09-1.77.26-3.53.16-5.3a63.27,63.27,0,0,0-.92-9.32,3.44,3.44,0,0,1,0-.64c.33-.44.11-1,.16-1.43a7.05,7.05,0,0,1,.17-2.24c.16,1.08.33,2.16.47,3.24.29,2.13.56,4.27.86,6.4.22,1.61.42,3.22.59,4.84a45.87,45.87,0,0,1,.44,6.92,33.67,33.67,0,0,1-1.91,10.42,2.69,2.69,0,0,1-.28.46c-.56-.19-.42-.67-.42-1.06C105.17,145.69,105.08,143.39,105.24,141.09Z" transform="translate(-0.39 -3.07)"/><path class="cls-20" d="M100.65,113.45c.43-2.07.85-4.13,1.27-6.2a2.85,2.85,0,0,1,.31,1.43c0,3.17,0,6.33,0,9.49,0,.28-.1.59.14.83a16.76,16.76,0,0,0-1.27,3.49c-.62-.27-.53-.86-.53-1.35,0-2.35-.12-4.71.06-7.06A2.66,2.66,0,0,0,100.65,113.45Z" transform="translate(-0.39 -3.07)"/><path class="cls-1" d="M98.88,191.65c-.16-1.19-.29-2.37-.47-3.55a27.14,27.14,0,0,0-.65-3.6,48.14,48.14,0,0,0-.86-4.77c-.11-.64-.27-1.27-.41-1.91-.44-2.42-.89-4.85-1.32-7.27-.12-.7-.18-1.41-.26-2.11a8.23,8.23,0,0,1-.29-2.09,47.76,47.76,0,0,1-.18-6.33,8.17,8.17,0,0,1,.3,2.3c.15,1.88.44,3.73.72,5.59a.81.81,0,0,0,.1.21,43.3,43.3,0,0,0,.87,5.07A11.08,11.08,0,0,0,97,175.6c.34,1.91.63,3.84,1.13,5.72.18,1.26.37,2.53.53,3.8s.26,2.39.41,3.58a55.83,55.83,0,0,1,.17,5.88A8.43,8.43,0,0,1,98.88,191.65Z" transform="translate(-0.39 -3.07)"/><path class="cls-1" d="M99.69,166.05A50.2,50.2,0,0,0,98,160a5,5,0,0,0-.55-1.45c.05-.56-.45-1-.32-1.6.42,0,.46.38.59.64.2.45.37.92.56,1.38.56,1.38,1.07,2.79,1.55,4.21.49,1.69,1,3.37,1.46,5.06.33,1.43.74,2.83,1,4.26a53.5,53.5,0,0,1,1.66,9.73c.14,2.26.41,4.51.37,6.77a20.66,20.66,0,0,1-.32,5c-.11.42,0,.9-.44,1.4a25.39,25.39,0,0,0,.22-4.29,55.44,55.44,0,0,0-1.09-11.28,22.5,22.5,0,0,0-.82-4,26.63,26.63,0,0,0-.8-4.07C100.67,169.9,100.32,167.94,99.69,166.05Z" transform="translate(-0.39 -3.07)"/><path class="cls-24" d="M98.11,159.06a10.64,10.64,0,0,0-1-2.08q0-3.87,0-7.74c0-.27-.11-.58.14-.82.34,1.3.37,2.67.8,4,.14.42.22.85.33,1.28a42.89,42.89,0,0,1,.06,4.81C98.47,158.7,98.47,159,98.11,159.06Z" transform="translate(-0.39 -3.07)"/><path class="cls-5" d="M104,182.26c-.21-1.26-.42-2.52-.65-3.78-.36-2-.73-4-1.26-5.91a29.5,29.5,0,0,0,0-3.39c0-1.42,0-2.84,0-4.26,0-.33-.12-.77.38-.92a35,35,0,0,1,1.12,5.05c.31,1.86.53,3.73.79,5.6a9.07,9.07,0,0,0-.29,2.38c-.05,1.49,0,3,0,4.49C104.13,181.77,104.22,182.05,104,182.26Z" transform="translate(-0.39 -3.07)"/><path class="cls-32" d="M106.06,185.61a6.37,6.37,0,0,1-.27-2.49c-.16-1.46-.28-2.93-.4-4.4-.14-1.88-.38-3.75-.59-5.63a7.79,7.79,0,0,0-.17-1.8c.15-.72,0-1.45.07-2.17,0-.31-.09-.71.37-.83a15.3,15.3,0,0,1,.48,3.09c.34,2.54,0,5.11.2,7.66a50,50,0,0,0,.6,6.57Z" transform="translate(-0.39 -3.07)"/><path class="cls-2" d="M46.94,31.93h1.21V32H46.94Z" transform="translate(-0.39 -3.07)"/><path class="cls-2" d="M49.16,31.77h1.06v.08h-1Z" transform="translate(-0.39 -3.07)"/><path class="cls-2" d="M51.69,31.68a1.56,1.56,0,0,1,1.07,0Z" transform="translate(-0.39 -3.07)"/><path class="cls-33" d="M102.54,120.75a8,8,0,0,1,1-2.25c2.13,4.27,2.5,20.19.49,24.22a66.42,66.42,0,0,1-.84-19.3c-.3.18,0,.55-.32.68-.41-.19-.38-.58-.4-.94A19.4,19.4,0,0,1,102.54,120.75Z" transform="translate(-0.39 -3.07)"/><path class="cls-9" d="M99.84,154.62a14.34,14.34,0,0,1-1.42-4.78q.14-12.56,0-25.11a51.36,51.36,0,0,1,.88-5.08c0-.27,0-.6.22-.81.51.38.41.94.41,1.46,0,3.7,0,7.4-.1,11.1,0,.79,0,1.58,0,2.38,0,1.87.21,3.73.2,5.61,0,.77.14,1.56.11,2.35.21,3.81.07,7.62.1,11.42C100.25,153.68,100.35,154.24,99.84,154.62Z" transform="translate(-0.39 -3.07)"/><path class="cls-11" d="M102.54,120.75c.33.44.11,1,.16,1.43.07.64-.14,1.3.17,1.92a57.89,57.89,0,0,0-.3,9.31,62.16,62.16,0,0,0,.58,6.8c.14,1,.27,2.08.48,3.1.05.2,0,.5.23.54s.33-.28.48-.44c.6-.67.51-1.59.9-2.32a1.72,1.72,0,0,1,.17,1c0,2,0,4.1,0,6.15,0,.28-.1.59.17.81-.19.59-.44,1.31-1.07,1.34s-.81-.73-1-1.27a32,32,0,0,1-1.6-4.36c-.2-6.89,0-13.79-.09-20.68a13.71,13.71,0,0,0,.09-1.42A6.42,6.42,0,0,1,102.54,120.75Z" transform="translate(-0.39 -3.07)"/><path class="cls-20" d="M101.9,122.66c.27.23.16.54.16.81q0,10.25,0,20.47c0,.28.11.59-.16.82a10.24,10.24,0,0,1-.92-3.55c-.15-1.23-.13-2.47-.18-3.71-.08-1.71-.24-3.42-.16-5.13a45.35,45.35,0,0,1,1.12-9.44A1,1,0,0,1,101.9,122.66Z" transform="translate(-0.39 -3.07)"/><path class="cls-34" d="M99.84,154.62a4.23,4.23,0,0,0,.17-1.33q0-5.35,0-10.72c0-.27-.11-.58.14-.83a30.78,30.78,0,0,0,1.11,4c.27.68.53,1.36.79,2a25.38,25.38,0,0,1,.1,3.15c0,.41,0,.86-.4,1.14-.13,0-.34-.2-.25.13a6.07,6.07,0,0,1,.41,1.44,31.57,31.57,0,0,1,.07,3.89c0,.33.12.77-.4.89A29.11,29.11,0,0,1,99.84,154.62Z" transform="translate(-0.39 -3.07)"/><path class="cls-11" d="M101.75,152.08a16,16,0,0,0,.16-3.39c0-.3-.11-.63.14-.9a18.52,18.52,0,0,0,1.11,2.59,1.66,1.66,0,0,0,1.61.91,1.11,1.11,0,0,1,.4,1.06c0,2.28,0,4.57,0,6.85,0,.51.1,1.13-.53,1.44A62.84,62.84,0,0,0,101.75,152.08Z" transform="translate(-0.39 -3.07)"/><path class="cls-32" d="M104.63,160.64a3.92,3.92,0,0,0,.3-1.52c0-2.27,0-4.55,0-6.82a4.27,4.27,0,0,0-.17-1,4,4,0,0,0,1.42-1.29c.33.49.06,1.1.33,1.6-.7,3.6-.36,7.24-.51,10.86-.06,1.47-.08,2.94-.19,4.4C105.53,164.77,105.07,162.71,104.63,160.64Z" transform="translate(-0.39 -3.07)"/><path class="cls-35" d="M99.83,131.4c-.24-.25-.14-.55-.14-.83q0-5.2,0-10.41a4.2,4.2,0,0,0-.17-1.32,54.26,54.26,0,0,1,1.13-5.39c.24.24.14.55.14.82q0,3.41,0,6.79a2.7,2.7,0,0,0,.3,1.43,34.15,34.15,0,0,0-1,5.4A18.77,18.77,0,0,1,99.83,131.4Z" transform="translate(-0.39 -3.07)"/><path class="cls-11" d="M101.58,158.43c.29-.25.15-.58.17-.88a20.34,20.34,0,0,1,.16-3.9,58.42,58.42,0,0,1,2.06,7.82c.39,2,.74,4,1.09,6a4.15,4.15,0,0,1,0,.79c-.27.76-.09,1.58-.29,2.35-.06.21.06.47-.15.65a48.72,48.72,0,0,0-1.59-8.46C102.64,161.33,102,159.93,101.58,158.43Z" transform="translate(-0.39 -3.07)"/><path class="cls-4" d="M98.42,124.73a6,6,0,0,1,.31,1.92c0,7,0,14.07,0,21.11a6.43,6.43,0,0,1-.3,2.08,18.15,18.15,0,0,1-.46-3.26,93.68,93.68,0,0,1-.48-12.86,51.31,51.31,0,0,1,.58-6.66C98.18,126.29,98.23,125.5,98.42,124.73Z" transform="translate(-0.39 -3.07)"/><path class="cls-25" d="M101.13,168.28c-.52-1.68-1.07-3.36-1.45-5.08-.17-1.71-.07-3.44-.07-5.16,0-.28,0-.66.4-.73a12.66,12.66,0,0,1,1.43,3.34c.17,2.21.06,4.42.08,6.63C101.52,167.64,101.63,168.09,101.13,168.28Z" transform="translate(-0.39 -3.07)"/><path class="cls-22" d="M101.13,168.28c.24-.25.14-.55.14-.83,0-2,0-4,0-6,0-.28-.11-.59.16-.81a17,17,0,0,1,1.09,3.35c-.24.24-.14.55-.14.82,0,2.11,0,4.21,0,6.32a2.85,2.85,0,0,1-.31,1.43c-.19-1.3-.6-2.55-.89-3.83A3.62,3.62,0,0,1,101.13,168.28Z" transform="translate(-0.39 -3.07)"/><path class="cls-28" d="M100,157.31c-.27.22-.16.53-.16.81,0,1.26,0,2.51,0,3.77a4.1,4.1,0,0,1-.17,1.31l-1.57-4.14c.26-.27.12-.61.14-.91a27.06,27.06,0,0,1,.17-4.5A32.11,32.11,0,0,1,100,157.31Z" transform="translate(-0.39 -3.07)"/></svg>