<svg id="Layer_1" data-name="Layer 1" xmlns="http://www.w3.org/2000/svg" viewBox="0 0 238 250"><defs><style>.cls-1{fill:#fefefe;}.cls-2{fill:#2f1c18;}.cls-3{fill:#f29d65;}.cls-4{fill:#de6a3f;}</style></defs><path class="cls-1" d="M114,361.89H352v250H114ZM306.07,531c7.41-1.6,10-4,10.79-10,.61-4.62-3.9-5.71-5.93-8.51-5.5-7.58-15.26-13.24-11-25.12.61-1.69.83-3.52,1.3-5.26,2.2-8,4.12-16,3.29-24.36,5.2-5.67,7.12-12.83,8.87-20,1.95-8,4.53-15.89,3.25-25.12-1.53,3.36-2.7,5.92-3.86,8.48l-1-.2v-25.8c-3.23-1-4.53.75-5.66,2.62a35.54,35.54,0,0,1-7.59,9l-.83-1.06c.12-3.25.67-6.51,0-9.69-.65-.07-1-.23-1.28-.12a5.08,5.08,0,0,0-1.67,1c-4.12,4.26-9.19,4.16-14.32,2.86s-9.94-3.36-15-4.49c-18.92-4.22-37.82-7.85-57.51-6.52-15.17,1-27.11,6.69-37.19,18-19,21.29-26.77,45.93-21.54,73.84,4.57,24.4,15.23,47,22.93,70.5-.55,12.52-1.57,14.36,13.34,19.82,14.4,5.27,29.65,6.41,44.73,8,13.65,1.43,27.27,2.93,40.89,4.63,5.93.73,12.45,3.92,18-1.44,2-2.19,2.22-5,2.91-7.71,1.18-4.58,1-9.49,3.54-13.74s1.75-5.95-3-7.53c-7.38-2.45-11.9-7.85-15.88-15.63a82.68,82.68,0,0,0,19.5,6.27c5.48,1.1,7.3-.3,8.24-5.55C304.84,535.7,304.2,533,306.07,531Z" transform="translate(-114 -361.89)"/><path class="cls-2" d="M172.1,551c-7.7-23.49-18.36-46.11-22.93-70.51-5.23-27.91,2.51-52.55,21.54-73.84,10.08-11.27,22-16.94,37.19-18,19.69-1.33,38.59,2.3,57.51,6.52,5.09,1.13,10,3.2,15,4.49s10.2,1.4,14.32-2.86a5.08,5.08,0,0,1,1.67-1c.26-.11.63.05,1.28.12.7,3.18.15,6.44,0,9.69a1.32,1.32,0,0,0-.52,1.92l1.35-.86a35.54,35.54,0,0,0,7.59-9c1.13-1.87,2.43-3.63,5.66-2.62v25.8l1,.2c1.16-2.56,2.33-5.12,3.86-8.48,1.28,9.23-1.3,17.16-3.25,25.12-1.75,7.17-3.67,14.33-8.87,20a.47.47,0,0,0-.67.19c-7,.08-13.36-2.64-19.59-5.38-8.49-3.73-16.81-7.87-25.49-12a88.65,88.65,0,0,1-15.14,20.5c-3.05,3-6.63,5.56-9,9.23l-.24.21a2.24,2.24,0,0,0-1.69,2.07l0,.06-1,1.19a26.23,26.23,0,0,0-2.8,15.93c.57,5-2.38,6.48-6.24,7.3-4.33.92-4.81-2.47-5.61-5.33A35.07,35.07,0,0,0,209,477c-4.16-4.44-8.38-4.13-12.21.62a16.24,16.24,0,0,0-2.89,5.75c-2.74,9.17-2.16,18,2.32,26.58-2.59,11.78-9,21.38-16.9,31.3-.42-3,.59-5-.91-7C175.79,539.83,175.41,546,172.1,551Z" transform="translate(-114 -361.89)"/><path class="cls-3" d="M303.87,457.9a.47.47,0,0,1,.67-.19c.83,8.38-1.09,16.39-3.29,24.36-.47,1.74-.69,3.57-1.3,5.26-4.28,11.88,5.48,17.54,11,25.12,2,2.8,6.54,3.89,5.93,8.51-3.21,2.38-7.31,1.59-10.78,3-1.55.64-3.06,1.2-3.08,3.32s.83,3.45,3.07,3.65c-1.87,2-1.23,4.74-1.66,7.12-.94,5.25-2.76,6.65-8.24,5.55a82.68,82.68,0,0,1-19.5-6.27c4,7.78,8.5,13.18,15.88,15.63,4.75,1.58,5.6,3.24,3,7.53s-2.36,9.16-3.54,13.74c-.69,2.7-.93,5.52-2.91,7.71-1.79-2-4.4-.84-6.57-1.69-15.14-5.95-30.62-11.06-44.72-19.46-11.52-6.88-19.12-15.89-17.87-30.26.12-1.42.37-3.06-1.21-4-6.49,4-11,3-15.6-3.43A65.93,65.93,0,0,1,196.18,510c-4.48-8.54-5.06-17.41-2.32-26.58a16.24,16.24,0,0,1,2.89-5.75c3.83-4.75,8.05-5.06,12.21-.62a35.07,35.07,0,0,1,8.14,14.67c.8,2.86,1.28,6.25,5.61,5.33,3.86-.82,6.81-2.32,6.24-7.3a26.23,26.23,0,0,1,2.8-15.93,1.11,1.11,0,0,0,1-1.19l0-.06c1.67.21,2.59-.19,1.69-2.07l.24-.21c2.1,1.23,3-.61,4.13-1.68,5.21-5.14,10.77-10,14.81-16.14,1.64-2.49,3.18-2.41,5.36-1.46a107.79,107.79,0,0,0,10.53,4.5c10,3.15,20.11,5.68,30.72,5.44C302.29,460.89,304.38,461.05,303.87,457.9ZM197.49,500.53l5,.71c.7,6.61,7.15,10.89,6.1,18.07-.27,1.83,2.93,3.68,5.45,3.25s2-2.79,1.92-4.54a79.84,79.84,0,0,0-10.87-36.63C198.6,483.91,196.14,490.22,197.49,500.53Zm70.79-30.64c9.33-1.79,17.76,1.3,26.16,4.51C287.69,465.76,278.05,464,268.28,469.89Zm24.34,17.22c-3.64-6.23-10.33-9-15.92-6.12-3.19,1.65-7.59,3.41-7.08,9.88C276.77,482.62,284.25,482,292.62,487.11Zm-5.15,14.43c3.66-2.66,5.54-8.47,3.93-12.05-.88-1.95-2-2.49-3.73-.87C284.67,491.47,284.57,498.12,287.47,501.54Z" transform="translate(-114 -361.89)"/><path class="cls-4" d="M196.18,510a65.93,65.93,0,0,0,6.95,13.09c4.62,6.48,9.11,7.47,15.6,3.43,1.58,1,1.33,2.63,1.21,4-1.25,14.37,6.35,23.38,17.87,30.26,14.1,8.4,29.58,13.51,44.72,19.46,2.17.85,4.78-.34,6.57,1.69-5.59,5.36-12.11,2.17-18,1.44-13.62-1.7-27.24-3.2-40.89-4.63-15.08-1.58-30.33-2.72-44.73-8-14.91-5.46-13.89-7.3-13.34-19.81,3.31-5,3.69-11.15,6.27-16.73,1.5,2,.49,4,.91,7C187.17,531.37,193.59,521.77,196.18,510Z" transform="translate(-114 -361.89)"/><path class="cls-4" d="M306.07,531c-2.24-.2-3.08-1.5-3.07-3.65s1.53-2.68,3.08-3.32c3.47-1.44,7.57-.65,10.78-3C316.05,527,313.48,529.36,306.07,531Z" transform="translate(-114 -361.89)"/><path class="cls-4" d="M303.87,457.9c.51,3.15-1.58,3-3.7,3-10.61.24-20.73-2.29-30.72-5.44a107.79,107.79,0,0,1-10.53-4.5c-2.18-.95-3.72-1-5.36,1.46-4,6.14-9.6,11-14.81,16.14-1.09,1.07-2,2.91-4.13,1.68,2.4-3.67,6-6.2,9-9.23a88.65,88.65,0,0,0,15.14-20.5c8.68,4.1,17,8.24,25.49,12C290.51,455.26,296.83,458,303.87,457.9Z" transform="translate(-114 -361.89)"/><path class="cls-4" d="M234.38,470.49c.9,1.88,0,2.28-1.69,2.07A2.24,2.24,0,0,1,234.38,470.49Z" transform="translate(-114 -361.89)"/><path class="cls-1" d="M298.57,406.71l-1.35.86a1.32,1.32,0,0,1,.52-1.92Z" transform="translate(-114 -361.89)"/><path class="cls-4" d="M232.72,472.62a1.11,1.11,0,0,1-1,1.19C232.07,473.41,232.39,473,232.72,472.62Z" transform="translate(-114 -361.89)"/><path class="cls-4" d="M197.49,500.53c-1.35-10.31,1.11-16.62,7.6-19.14A79.84,79.84,0,0,1,216,518c.07,1.75.52,4.12-1.92,4.54s-5.72-1.42-5.45-3.25c1-7.18-5.4-11.46-6.1-18.07Z" transform="translate(-114 -361.89)"/><path class="cls-2" d="M268.28,469.89c9.77-5.85,19.41-4.13,26.16,4.51C286,471.19,277.61,468.1,268.28,469.89Z" transform="translate(-114 -361.89)"/><path class="cls-2" d="M292.62,487.11c-8.37-5.12-15.85-4.49-23,3.76-.51-6.47,3.89-8.23,7.08-9.88C282.29,478.11,289,480.88,292.62,487.11Z" transform="translate(-114 -361.89)"/><path class="cls-2" d="M287.47,501.54c-2.9-3.42-2.8-10.07.2-12.92,1.7-1.62,2.85-1.08,3.73.87C293,493.07,291.13,498.88,287.47,501.54Z" transform="translate(-114 -361.89)"/></svg>