<svg viewBox="0 0 1058 785" fill="none" xmlns="http://www.w3.org/2000/svg">
	<style>
		* {
			margin: 0;
			padding: 0;
			box-sizing: border-box;
		}

		svg {
			text-align: center;
		}


		#right-wheel,
		#left-wheel {

			animation: wheel 2s infinite linear;
			transform-origin: center;
			transform-box: fill-box;
		}

		@keyframes wheel {
			from {
				transform: rotateZ(0deg)
			}

			to {
				transform: rotateZ(360deg)
			}

		}
#man-bike {
	animation: bike 1s ease-in-out infinite alternate;
	transform-origin: bottom;
}

@keyframes bike {
	from {
		transform: rotateX(0deg);
	}
	to{
		transform: rotateX(20deg);
	}
}
#hat {
	animation: hat-ani 1s ease-in-out infinite alternate;
	transform-origin: bottom;
}

@keyframes hat-ani {
	from {
		transform: rotateX(0deg);
	}
	to{
		transform: rotateX(20deg);
	}
}

#Vector{
animation:run 6s infinite linear;
}

@keyframes run{
  100% {transform:translateX(-1200px);}
}
	</style>

<g id="undraw_Ride_a_bicycle_2yok 1" clip-path="url(#clip0)">
<path id="Vector" opacity="0.7" d="M223.338 86.6288C217.276 92.7534 214.325 101.873 211.177 110.412C185.819 179.233 134.016 231.723 77.2182 267.411C53.1652 282.528 23.6883 303.054 25.7995 334.285C26.9403 351.058 37.4518 364.288 44.8575 378.54C60.4002 408.386 62.7796 447.243 51.0663 480.205C37.7437 517.709 7.02866 551.037 11.9809 590.64C15.0386 615.019 31.2729 633.651 47.0381 649.83C71.6346 675.056 97.2123 698.919 123.771 721.418C141.575 736.498 160.626 751.33 182.639 755.046C202.022 758.32 206 771 233 771C260 771 263 771 297 771C321 771 330 769.954 362 763C382 749.8 394 740.406 409.776 741.846C461.561 746.57 516.551 731.155 576.341 709.447C668.056 676.143 743.006 595.469 833.277 556.75C872.09 540.098 891.026 525.576 927.627 502.908C948.262 489.982 979.841 467.983 994.822 448.789C1024.36 411.207 1038.36 368.472 1038.86 318.25C1039.37 268.029 1011.76 225.665 978.742 194.275C943.398 160.675 918.859 147.332 877.169 125.293C834.119 102.528 797.234 66.7889 754.737 42.6981C720.346 23.2497 682.036 11.7476 642.62 9.03593C603.203 6.32424 563.679 12.4717 526.949 27.0273C476.483 47.0248 422.393 99.4874 368.272 98.9077C329.718 98.4028 256.543 53.0869 223.338 86.6288Z" fill="url(#paint0_linear)"/>
<g id="right-wheel">
<path id="Vector_2" d="M746.915 720.977L740.655 623.077L740.525 622.867L734.205 625.067L705.115 709.877L658.865 677.077L732.555 623.667L732.625 623.457L733.045 623.307L737.795 619.857L660.555 576.547L641.625 597.347L644.625 616.847L733.425 618.427V620.427L642.945 618.807L639.545 596.697L665.435 568.247L704.155 523.077L704.845 524.947L713.045 515.947L743.585 521.417V520.207L745.585 520.267V521.777L790.945 529.897L748.615 614.547L742.445 619.017V619.517V620.077L840.255 585.997L828.645 677.207L745.645 624.337L742.725 622.697L791.665 701.587L746.915 720.977ZM742.915 626.637L748.765 718.017L788.815 700.637L742.915 626.637ZM662.345 677.077L704.135 706.707L731.475 626.967L662.345 677.077ZM744.665 621.417L746.755 622.587L827.105 673.787L837.905 588.917L744.665 621.417ZM737.565 614.217L740.075 618.267L740.515 617.947L743.515 523.417L713.775 518.077L705.615 527.077L737.565 614.217ZM662.175 575.167L737.015 617.167L735.715 615.037L704.135 528.767L666.935 569.647L662.175 575.167ZM745.545 523.777L742.545 616.467L747.065 613.187L787.975 531.367L745.545 523.777Z" fill="#535461"/>
<path id="Vector_3" d="M741.825 502.197C731.212 502.185 720.646 503.611 710.415 506.437C705.139 507.892 699.972 509.72 694.955 511.907C668.225 523.494 646.742 544.583 634.662 571.095C622.582 597.606 620.764 627.656 629.56 655.43C638.355 683.204 657.139 706.73 682.277 721.455C707.416 736.181 737.122 741.06 765.65 735.148C794.177 729.237 819.499 712.956 836.716 689.454C853.933 665.951 861.822 636.899 858.857 607.917C855.891 578.934 842.283 552.081 820.663 532.553C799.043 513.025 770.949 502.208 741.815 502.197H741.825ZM741.425 708.287C721.144 708.279 701.476 701.333 685.688 688.604C669.899 675.875 658.94 658.127 654.63 638.31C650.32 618.492 652.919 597.796 661.996 579.659C671.072 561.523 686.079 547.037 704.525 538.607C709.217 536.459 714.089 534.729 719.085 533.437C731.297 530.267 744.045 529.734 756.479 531.874C768.913 534.014 780.749 538.778 791.198 545.848C801.648 552.918 810.472 562.133 817.083 572.879C823.695 583.625 827.941 595.656 829.541 608.171C831.141 620.686 830.057 633.399 826.361 645.462C822.665 657.526 816.443 668.664 808.108 678.135C799.772 687.607 789.515 695.194 778.019 700.393C766.523 705.592 754.052 708.283 741.435 708.287H741.425Z" fill="#535461"/>
<g id="right-shamim">
<path id="S" d="M684.62 535.206C682.751 535.759 681.265 535.916 680.162 535.676C679.063 535.426 678.246 534.77 677.713 533.709C677.109 532.509 677.06 531.227 677.566 529.863C678.074 528.489 679.05 527.334 680.493 526.4C681.477 525.764 682.454 525.399 683.425 525.308C684.402 525.211 685.28 525.384 686.058 525.824C686.842 526.26 687.446 526.9 687.871 527.745L685.972 528.974C685.509 528.052 684.87 527.508 684.056 527.341C683.239 527.167 682.328 527.405 681.325 528.055C680.393 528.658 679.776 529.349 679.472 530.128C679.172 530.896 679.216 531.668 679.606 532.442C679.918 533.064 680.429 533.431 681.138 533.546C681.851 533.649 682.89 533.494 684.256 533.082C685.629 532.665 686.758 532.457 687.645 532.457C688.534 532.445 689.284 532.622 689.893 532.986C690.508 533.346 691.011 533.914 691.401 534.688C692.022 535.924 692.067 537.208 691.538 538.541C691.005 539.866 689.981 541.02 688.466 542C687.482 542.637 686.464 543.032 685.411 543.186C684.355 543.333 683.418 543.209 682.602 542.812C681.792 542.411 681.164 541.767 680.718 540.881L682.617 539.652C683.08 540.573 683.765 541.097 684.671 541.223C685.581 541.337 686.57 541.048 687.639 540.356C688.636 539.711 689.291 539 689.605 538.224C689.919 537.447 689.888 536.685 689.512 535.938C689.137 535.191 688.601 534.775 687.906 534.688C687.207 534.595 686.112 534.767 684.62 535.206Z" fill="white"/>
<path id="H" d="M713.712 529.318L711.592 530.105L709.397 522.53L701.333 525.523L703.528 533.098L701.418 533.881L696.671 517.492L698.781 516.709L700.822 523.755L708.886 520.762L706.845 513.716L708.965 512.929L713.712 529.318Z" fill="white"/>
<path id="A" d="M732.48 521.085L725.386 521.969L724.232 526.598L721.929 526.885L726.714 509.101L728.667 508.857L736.826 525.031L734.535 525.316L732.48 521.085ZM725.878 520.042L731.635 519.325L727.964 511.743L725.878 520.042Z" fill="white"/>
<path id="M" d="M749.087 508.283L753.297 522.845L760.155 509.689L763.05 510.056L761.426 527.042L759.194 526.758L759.826 520.144L760.718 513.031L753.847 526.079L752.138 525.862L747.903 511.439L747.445 518.572L746.813 525.186L744.581 524.902L746.204 507.917L749.087 508.283Z" fill="white"/>
<path id="I" d="M772.46 530.728L770.329 530.008L774.61 513.491L776.741 514.212L772.46 530.728Z" fill="white"/>
<path id="M_2" d="M790.931 520.162L790.149 535.672L800.611 525.709L803.142 527.159L796.253 542.769L794.3 541.65L796.983 535.571L800.062 529.115L789.623 538.97L788.129 538.114L788.843 522.727L786.155 529.366L783.472 535.445L781.52 534.326L788.409 518.717L790.931 520.162Z" fill="white"/>
</g>
</g>
<g id="left-wheel">
<path id="Vector_4" d="M320.725 720.577L314.455 622.637L314.325 622.427L308.005 624.627L278.925 709.477L232.675 676.687L306.345 623.277L306.415 623.067L306.835 622.917L311.585 619.467L234.345 576.157L215.425 596.957L218.425 616.457L307.245 618.077V620.077L216.765 618.457L213.345 596.317L239.245 567.857L277.995 522.657L278.685 524.527L286.885 515.527L317.345 520.987V519.777L319.345 519.837V521.347L364.705 529.467L322.415 614.077L316.245 618.547V619.047V619.607L414.045 585.527L402.435 676.737L319.435 623.867L316.515 622.227L365.455 701.107L320.725 720.577ZM316.725 626.237L322.575 717.617L362.625 700.237L316.725 626.237ZM236.145 676.667L277.935 706.297L305.275 626.557L236.145 676.667ZM318.465 621.007L320.555 622.177L400.905 673.377L411.705 588.507L318.465 621.007ZM311.365 613.807L313.875 617.857L314.315 617.537L317.315 523.007L287.575 517.687L279.415 526.687L311.365 613.807ZM235.945 574.747L310.785 616.747L309.485 614.617L277.905 528.347L240.715 569.217L235.945 574.747ZM319.345 523.357L316.345 616.077L320.865 612.797L361.775 530.977L319.345 523.357Z" fill="#535461"/>
<path id="Vector_5" d="M430.415 593.537C426.405 575.717 418.285 559.082 406.705 544.957C402.406 539.708 397.666 534.836 392.535 530.397C372.809 513.365 347.986 503.366 321.962 501.968C295.938 500.57 270.187 507.852 248.749 522.671C227.311 537.491 211.401 559.009 203.515 583.849C195.629 608.688 196.214 635.443 205.178 659.915C214.142 684.386 230.978 705.188 253.042 719.057C275.107 732.925 301.152 739.075 327.09 736.541C353.028 734.007 377.39 722.932 396.353 705.055C415.317 687.178 427.807 663.51 431.865 637.767C432.809 631.706 433.284 625.581 433.285 619.447C433.292 610.73 432.329 602.04 430.415 593.537ZM315.225 707.887C296.993 707.868 279.209 702.234 264.292 691.751C249.374 681.269 238.047 666.446 231.851 649.299C225.655 632.152 224.89 613.513 229.66 595.916C234.43 578.319 244.505 562.618 258.513 550.948C272.521 539.278 289.783 532.206 307.953 530.693C326.122 529.18 344.316 533.299 360.062 542.491C375.807 551.683 388.34 565.501 395.956 582.066C403.571 598.632 405.9 617.141 402.625 635.077C398.875 655.52 388.076 674.001 372.107 687.304C356.137 700.608 336.01 707.891 315.225 707.887Z" fill="#535461"/>
<g id="left-shamim">
<path id="S_2" d="M375.838 701.7C377.658 701.044 379.117 700.808 380.213 700.991C381.307 701.186 382.139 701.804 382.708 702.847C383.351 704.026 383.452 705.317 383.009 706.719C382.563 708.133 381.648 709.349 380.263 710.367C379.319 711.061 378.37 711.481 377.417 711.624C376.457 711.773 375.585 711.645 374.801 711.242C374.01 710.843 373.388 710.229 372.935 709.399L374.757 708.059C375.251 708.965 375.903 709.48 376.712 709.606C377.525 709.738 378.413 709.45 379.376 708.742C380.27 708.085 380.851 707.355 381.118 706.553C381.384 705.762 381.309 704.986 380.893 704.224C380.56 703.614 380.041 703.27 379.337 703.192C378.631 703.125 377.612 703.336 376.282 703.824C374.946 704.317 373.841 704.587 372.967 704.633C372.09 704.692 371.344 704.553 370.729 704.218C370.108 703.887 369.589 703.341 369.174 702.58C368.511 701.366 368.414 700.073 368.882 698.7C369.354 697.334 370.317 696.117 371.771 695.048C372.715 694.354 373.703 693.901 374.734 693.69C375.769 693.486 376.698 693.563 377.519 693.92C378.333 694.282 378.978 694.898 379.454 695.769L377.632 697.109C377.138 696.204 376.441 695.712 375.543 695.633C374.642 695.565 373.678 695.908 372.652 696.663C371.695 697.366 371.078 698.118 370.8 698.918C370.523 699.718 370.584 700.485 370.984 701.219C371.385 701.953 371.93 702.345 372.619 702.396C373.312 702.453 374.385 702.221 375.838 701.7Z" fill="white"/>
<path id="H_2" d="M347.08 709.386L349.154 708.482L351.634 715.969L359.519 712.533L357.039 705.046L359.102 704.147L364.467 720.344L362.404 721.243L360.097 714.279L352.212 717.715L354.519 724.679L352.445 725.583L347.08 709.386Z" fill="white"/>
<path id="A_2" d="M328.554 718.669L335.596 717.439L336.548 712.754L338.833 712.354L334.827 730.367L332.887 730.706L324.046 714.939L326.32 714.541L328.554 718.669ZM335.188 719.389L329.474 720.387L333.464 727.787L335.188 719.389Z" fill="white"/>
<path id="M_3" d="M312.486 732.225L307.573 717.845L301.37 731.279L298.463 731.032L299.253 713.988L301.495 714.179L301.187 720.816L300.645 727.962L306.866 714.635L308.583 714.781L313.514 729.021L313.623 721.874L313.93 715.236L316.172 715.427L315.382 732.471L312.486 732.225Z" fill="white"/>
<path id="I_2" d="M287.963 710.643L290.119 711.287L286.725 728.008L284.569 727.364L287.963 710.643Z" fill="white"/>
<path id="M_4" d="M270.116 721.872L270.073 706.219L260.262 716.64L257.685 715.271L263.672 699.294L265.659 700.349L263.328 706.571L260.625 713.188L270.42 702.877L271.941 703.685L272.043 719.212L274.35 712.424L276.682 706.202L278.669 707.257L272.682 723.235L270.116 721.872Z" fill="white"/>
</g>
</g>
<g id="man-bike">
<path id="Vector_6" d="M452.495 557.89L409.788 515.746L396.442 529.27L439.149 571.414L452.495 557.89Z" fill="#808083"/>
<path id="Vector_7" d="M419.975 495.577C419.975 495.577 444.765 482.497 454.345 474.077C460.112 469.031 466.313 464.503 472.875 460.547L503.975 441.617L568.975 436.617L571.975 447.617C571.975 447.617 576.975 463.617 526.975 477.617C476.975 491.617 451.975 513.617 451.975 513.617C451.975 513.617 419.975 524.577 419.975 495.577Z" fill="#DB8B8B"/>
<path id="Vector_8" opacity="0.1" d="M454.625 511.447C452.855 512.797 451.975 513.577 451.975 513.577C451.975 513.577 419.975 524.577 419.975 495.577C419.975 495.577 421.525 494.757 423.975 493.387C426.45 497.417 429.918 500.746 434.046 503.055C438.174 505.364 442.825 506.577 447.555 506.577H450.945L454.625 511.447Z" fill="black"/>
<path id="Vector_9" opacity="0.05" d="M571.035 453.137C568.255 459.027 558.665 468.707 526.975 477.577C486.365 488.947 462.245 505.577 454.625 511.447C452.855 512.797 451.975 513.577 451.975 513.577C451.975 513.577 419.975 524.577 419.975 495.577C419.975 495.577 421.525 494.757 423.975 493.387C431.405 489.317 447.135 480.387 454.315 474.037C460.081 468.989 466.282 464.462 472.845 460.507L503.945 441.577L515.525 440.687L568.945 436.577L571.945 447.577C571.945 447.577 572.645 449.727 571.035 453.137Z" fill="black"/>
<path id="Vector_10" d="M420.475 489.077L393.975 506.577L471.575 571.577C471.575 571.577 482.975 564.577 476.975 556.577C476.975 556.577 456.975 539.577 455.975 515.577L449.975 507.577H446.585C440.853 507.577 435.262 505.798 430.585 502.484C425.907 499.17 422.375 494.485 420.475 489.077Z" fill="#ABB1D1"/>
<path id="Vector_11" opacity="0.1" d="M571.035 453.137C555.035 445.407 515.975 444.577 515.975 444.577L515.555 440.687L568.975 436.577L571.975 447.577C571.975 447.577 572.645 449.727 571.035 453.137Z" fill="black"/>
<path id="Vector_12" d="M515.975 442.577C515.975 442.577 562.975 443.577 574.975 453.577L568.975 332.577H503.975L515.975 442.577Z" fill="#ABB1D1"/>
<path id="Vector_13" opacity="0.05" d="M515.975 442.077C515.975 442.077 562.975 443.077 574.975 453.077L568.975 332.077H503.975L515.975 442.077Z" fill="black"/>
<path id="Vector_14" d="M553.735 368.537C553.735 368.537 671.385 364.537 673.785 379.747C676.185 394.957 556.135 388.547 556.135 388.547C556.135 388.547 546.535 378.937 553.735 368.537Z" fill="#535461"/>
<path id="Vector_15" opacity="0.05" d="M553.735 368.537C553.735 368.537 671.385 364.537 673.785 379.747C676.185 394.957 556.135 388.547 556.135 388.547C556.135 388.547 546.535 378.937 553.735 368.537Z" fill="black"/>
<path id="Vector_16" d="M458.495 429.367H437.685V610.247H458.495V429.367Z" fill="#808083"/>
<path id="Vector_17" opacity="0.1" d="M458.495 429.357V443.287C451.575 444.187 444.495 444.757 437.685 444.977V429.357H458.495Z" fill="black"/>
<path id="Vector_18" d="M456.935 414.367C454.015 414.141 451.111 413.75 448.235 413.197C436.955 411.037 408.515 406.507 400.865 414.197C391.265 423.797 394.465 440.607 420.075 443.007C445.685 445.407 489.705 439.007 498.515 429.397C498.515 429.357 482.585 416.337 456.935 414.367Z" fill="#535461"/>
<path id="Vector_19" d="M452.895 478.987L671.395 410.957L678.595 427.767L454.495 504.597L452.895 478.987Z" fill="#808083"/>
<path id="Vector_20" d="M517.725 586.237L675.395 430.967L684.195 443.767L533.725 600.637L517.725 586.237Z" fill="#808083"/>
<path id="Vector_21" opacity="0.1" d="M719.075 533.437C714.079 534.729 709.207 536.459 704.515 538.607L694.955 511.897C699.972 509.71 705.139 507.882 710.415 506.427L719.075 533.437Z" fill="black"/>
<path id="Vector_22" d="M745.825 611.847L734.625 618.247L656.485 399.917L652.985 390.147L671.395 379.737L676.005 394.117L745.825 611.847Z" fill="#808083"/>
<path id="Vector_23" opacity="0.1" d="M676.005 394.117L656.485 399.917L652.985 390.147L671.395 379.737L676.005 394.117Z" fill="black"/>
<path id="Vector_24" d="M556.935 410.957L666.585 373.337C666.585 373.337 685.795 375.737 678.585 391.747L568.145 424.557C568.145 424.557 551.345 426.157 556.935 410.957Z" fill="#535461"/>
<path id="Vector_25" opacity="0.1" d="M433.285 619.448C433.284 625.582 432.809 631.707 431.865 637.768C422.265 637.078 412.345 636.078 402.625 635.078C404.785 623.187 404.516 610.982 401.835 599.198C411.305 597.198 420.975 595.287 430.415 593.557C432.328 602.055 433.29 610.738 433.285 619.448Z" fill="black"/>
<path id="Vector_26" opacity="0.1" d="M458.495 588.968V610.237H437.685V592.237C444.885 590.987 451.885 589.878 458.495 588.968Z" fill="black"/>
<path id="Vector_27" d="M324.035 619.078C324.035 619.078 492.115 575.078 505.715 591.868C519.315 608.658 533.725 631.078 491.345 639.078C448.965 647.078 320.865 625.468 320.865 625.468L324.035 619.078Z" fill="#808083"/>
<path id="Vector_28" opacity="0.1" d="M406.705 544.957L385.345 564.507C381.563 559.651 377.286 555.2 372.585 551.227L392.525 530.397C397.659 534.836 402.403 539.707 406.705 544.957Z" fill="black"/>
<path id="Vector_29" d="M318.435 610.247L444.085 478.987L448.095 509.397L324.835 622.247L318.435 610.247Z" fill="#808083"/>
<path id="Vector_30" opacity="0.1" d="M513.715 631.857C527.859 631.857 539.325 620.391 539.325 606.247C539.325 592.103 527.859 580.637 513.715 580.637C499.571 580.637 488.105 592.103 488.105 606.247C488.105 620.391 499.571 631.857 513.715 631.857Z" fill="black"/>
<path id="Vector_31" d="M515.325 631.857C529.469 631.857 540.935 620.391 540.935 606.247C540.935 592.103 529.469 580.637 515.325 580.637C501.181 580.637 489.715 592.103 489.715 606.247C489.715 620.391 501.181 631.857 515.325 631.857Z" fill="#535461"/>
<path id="Vector_32" d="M508.487 604.324L508.479 604.33C505.472 606.579 504.857 610.84 507.106 613.848L527.432 641.028C529.681 644.036 533.943 644.65 536.95 642.401L536.958 642.395C539.966 640.146 540.581 635.885 538.332 632.877L518.005 605.697C515.756 602.689 511.495 602.074 508.487 604.324Z" fill="#6C63FF"/>
<path id="Vector_33" d="M630.975 250.577L628.595 280.687C628.321 284.501 628.372 288.331 628.745 292.137C629.055 295.507 628.745 301.407 625.445 310.407C621.208 321.904 619.018 334.054 618.975 346.307V380.577L595.975 376.577C595.975 376.577 596.975 328.577 592.975 320.577C588.975 312.577 595.975 241.577 595.975 241.577L630.975 250.577Z" fill="#DB8B8B"/>
<path id="Vector_34" opacity="0.05" d="M629.795 265.497L628.595 280.687C628.325 284.498 628.378 288.325 628.755 292.127C629.065 295.497 628.755 301.397 625.455 310.407C621.218 321.904 619.028 334.054 618.985 346.307V380.577L595.985 376.577C595.985 376.577 596.985 328.577 592.985 320.577C590.155 314.907 592.835 277.637 594.645 256.367C595.395 247.617 595.985 241.577 595.985 241.577L630.985 250.577L629.795 265.497Z" fill="black"/>
<path id="Vector_35" d="M516.995 480.577L508.345 529.777C507.254 536.346 505.581 542.804 503.345 549.077C498.275 562.937 501.515 582.367 503.975 592.967C505.065 597.647 505.975 600.607 505.975 600.607L479.975 614.607L471.975 608.607V604.607L470.975 515.607C464.975 501.607 466.975 480.607 470.975 472.607C472.113 469.978 472.912 467.216 473.355 464.387C475.355 453.667 475.975 438.607 475.975 438.607C475.975 438.607 491.975 411.607 510.975 429.607C517.975 436.237 520.635 444.907 521.195 453.207C522.175 467.417 516.995 480.577 516.995 480.577Z" fill="#DB8B8B"/>
<path id="Vector_36" opacity="0.1" d="M521.195 453.177C507.325 461.417 483.195 463.747 473.355 464.357C475.355 453.637 475.975 438.577 475.975 438.577C475.975 438.577 491.975 411.577 510.975 429.577C517.975 436.207 520.635 444.877 521.195 453.177Z" fill="black"/>
<path id="Vector_37" d="M554.975 428.577C544.341 434.24 534.292 440.939 524.975 448.577C508.975 461.577 468.975 462.577 468.975 462.577V447.577C469.975 429.577 452.975 409.577 429.975 353.577C415.285 317.817 419.355 297.577 424.215 287.577C426.975 281.927 429.975 279.577 429.975 279.577L554.975 303.577L559.445 316.977L568.975 345.577C568.975 345.577 533.975 347.577 527.975 350.577C521.975 353.577 525.975 380.577 525.975 380.577C519.975 408.577 554.975 428.577 554.975 428.577Z" fill="#ABB1D1"/>
<path id="Vector_38" opacity="0.1" d="M630.975 250.577L629.795 265.497C612.395 270.497 599.975 254.577 599.975 254.577C598.16 255.063 596.377 255.661 594.635 256.367C595.385 247.617 595.975 241.577 595.975 241.577L630.975 250.577Z" fill="black"/>
<path id="Vector_39" opacity="0.1" d="M559.445 316.977C558.975 321.647 558.975 324.577 558.975 324.577C558.975 324.577 535.975 343.577 496.975 314.577C457.975 285.577 422.975 293.577 422.975 293.577C422.975 293.577 423.385 291.257 424.215 287.577C426.975 281.927 429.975 279.577 429.975 279.577L554.975 303.577L559.445 316.977Z" fill="black"/>
<path id="Vector_40" d="M645.975 207.009C643.365 227.46 642.495 253.238 642.495 253.238C619.495 271.327 601.495 248.213 601.495 248.213C579.775 254.072 569.565 273.177 564.755 289.849C562.179 298.867 560.748 308.177 560.495 317.556C560.495 317.556 554.415 322.581 543.215 323.586C532.625 324.48 517.445 321.707 498.495 307.506C459.495 278.362 424.495 286.402 424.495 286.402C424.495 286.402 431.495 246.203 447.495 234.144C463.495 222.084 475.495 207.009 495.495 160.781C515.495 114.552 556.495 125.607 556.495 125.607C556.495 125.607 558.495 116.562 595.495 125.607C604.507 127.98 612.849 132.421 619.865 138.581C639.655 155.303 649.255 181.242 645.975 207.009Z" fill="white"/>
<path id="Vector_41" opacity="0.05" d="M563.235 294.007C560.659 302.981 559.228 312.244 558.975 321.577C558.975 321.577 552.895 326.577 541.695 327.577C541.38 326.94 541.138 326.269 540.975 325.577C538.975 316.577 523.975 300.577 523.975 300.577C513.975 291.577 511.975 275.577 511.975 275.577L495.475 227.077L489.975 222.577C489.975 222.577 512.975 204.577 532.975 219.577C552.975 234.577 546.975 266.577 546.975 266.577L550.975 277.577C555.125 281.077 559.345 287.247 563.235 294.007Z" fill="black"/>
<path id="Vector_42" d="M492.975 221.577L514.975 274.577C514.975 274.577 516.975 290.577 526.975 299.577C526.975 299.577 541.975 315.577 543.975 324.577C545.975 333.577 573.975 357.577 573.975 357.577C573.975 357.577 599.975 381.577 601.975 390.577C601.975 390.577 625.975 397.577 622.975 411.577C622.975 411.577 640.975 393.577 622.975 376.577C604.975 359.577 580.975 324.577 580.975 324.577C580.975 324.577 566.975 287.577 553.975 276.577L549.975 265.577C549.975 265.577 555.975 233.577 535.975 218.577C515.975 203.577 492.975 221.577 492.975 221.577Z" fill="#DB8B8B"/>
<path id="Vector_43" opacity="0.1" d="M505.975 600.578L479.975 614.578L471.975 608.578V604.578C480.959 603.939 489.688 601.306 497.525 596.868C499.925 595.508 502.185 594.168 503.995 592.988C505.045 597.618 505.975 600.578 505.975 600.578Z" fill="black"/>
<path id="Vector_44" opacity="0.1" d="M535.975 179.577L549.975 234.577C549.975 234.577 506.975 241.577 497.975 234.577C488.975 227.577 471.975 225.577 471.975 225.577C471.975 225.577 489.975 173.577 499.975 167.577C509.975 161.577 535.975 179.577 535.975 179.577Z" fill="black"/>
<path id="Vector_45" d="M535.975 177.577L549.975 232.577C549.975 232.577 506.975 239.577 497.975 232.577C488.975 225.577 471.975 223.577 471.975 223.577C471.975 223.577 489.975 171.577 499.975 165.577C509.975 159.577 535.975 177.577 535.975 177.577Z" fill="white"/>
<path id="Vector_46" opacity="0.05" d="M450.475 238.077C450.475 238.077 476.475 245.077 484.475 263.077C492.475 281.077 514.115 284.367 514.115 284.367" fill="black"/>
<path id="Vector_47" d="M548.475 634.078H488.475V653.078H548.475V634.078Z" fill="#808083"/>
<path id="Vector_48" d="M497.485 598.818C502.855 595.818 507.565 592.818 507.975 591.578C507.975 591.578 521.525 605.878 533.595 610.318C537.654 611.817 541.539 613.748 545.185 616.078C549.965 619.078 556.785 622.608 562.975 622.608C562.975 622.608 576.975 634.608 549.975 636.608C522.975 638.608 459.975 631.608 459.975 631.608L463.975 606.608C475.662 607.293 487.299 604.588 497.485 598.818Z" fill="#ABB1D1"/>
<path id="Vector_49" d="M741.425 632.258C748.5 632.258 754.235 626.522 754.235 619.448C754.235 612.373 748.5 606.638 741.425 606.638C734.35 606.638 728.615 612.373 728.615 619.448C728.615 626.522 734.35 632.258 741.425 632.258Z" fill="#535461"/>
<path id="Vector_50" d="M315.225 631.858C322.3 631.858 328.035 626.122 328.035 619.048C328.035 611.973 322.3 606.238 315.225 606.238C308.15 606.238 302.415 611.973 302.415 619.048C302.415 626.122 308.15 631.858 315.225 631.858Z" fill="#535461"/>
<path id="Vector_51" opacity="0.1" d="M316.835 631.858C323.91 631.858 329.645 626.122 329.645 619.048C329.645 611.973 323.91 606.238 316.835 606.238C309.76 606.238 304.025 611.973 304.025 619.048C304.025 626.122 309.76 631.858 316.835 631.858Z" fill="black"/>
<path id="Vector_52" opacity="0.1" d="M740.625 630.658C747.7 630.658 753.435 624.922 753.435 617.848C753.435 610.773 747.7 605.038 740.625 605.038C733.55 605.038 727.815 610.773 727.815 617.848C727.815 624.922 733.55 630.658 740.625 630.658Z" fill="black"/>
<g id="shamim">
<path id="S_3" d="M433.136 279.065C431.822 278.897 430.842 278.591 430.198 278.15C429.558 277.702 429.191 277.085 429.098 276.299C428.993 275.409 429.259 274.619 429.895 273.93C430.536 273.234 431.423 272.798 432.555 272.621C433.327 272.5 434.031 272.543 434.669 272.749C435.312 272.954 435.829 273.295 436.221 273.771C436.617 274.246 436.853 274.796 436.927 275.422L435.437 275.655C435.357 274.972 435.077 274.471 434.599 274.151C434.12 273.825 433.487 273.724 432.7 273.847C431.969 273.961 431.417 274.213 431.044 274.604C430.676 274.988 430.525 275.467 430.593 276.041C430.648 276.502 430.887 276.862 431.311 277.122C431.739 277.377 432.434 277.563 433.397 277.681C434.365 277.798 435.13 277.976 435.693 278.215C436.26 278.448 436.695 278.756 436.997 279.141C437.305 279.525 437.493 280.004 437.56 280.578C437.669 281.493 437.401 282.283 436.756 282.948C436.111 283.607 435.194 284.03 434.005 284.216C433.233 284.336 432.495 284.302 431.791 284.111C431.087 283.916 430.521 283.588 430.095 283.128C429.674 282.667 429.424 282.108 429.346 281.451L430.836 281.218C430.917 281.901 431.23 282.403 431.777 282.723C432.327 283.037 433.022 283.129 433.861 282.998C434.643 282.875 435.224 282.621 435.602 282.235C435.981 281.85 436.138 281.38 436.073 280.826C436.007 280.273 435.764 279.876 435.342 279.637C434.92 279.392 434.185 279.201 433.136 279.065Z" fill="#676666"/>
<path id="H_3" d="M449.547 283.332L448.039 283.33L448.175 278.074L442.44 278.065L442.305 283.321L440.805 283.318L441.097 271.947L442.597 271.949L442.472 276.838L448.206 276.848L448.332 271.959L449.839 271.961L449.547 283.332Z" fill="#676666"/>
<path id="A_3" d="M459.376 281.895L454.674 281.115L453.109 283.864L451.583 283.611L457.821 273.116L459.116 273.331L461.455 285.249L459.937 284.997L459.376 281.895ZM455.333 279.973L459.148 280.606L458.151 275.048L455.333 279.973Z" fill="#676666"/>
<path id="M_5" d="M469.017 275.863L469.536 285.881L476.035 278.327L477.87 278.971L474.206 289.74L472.791 289.243L474.218 285.049L475.891 280.57L469.4 288.052L468.316 287.672L467.76 277.74L466.367 282.293L464.94 286.487L463.525 285.99L467.189 275.221L469.017 275.863Z" fill="#676666"/>
<path id="I_3" d="M477.357 291.809L476.027 291.116L481.048 280.909L482.378 281.602L477.357 291.809Z" fill="#676666"/>
<path id="M_6" d="M489.713 286.065L487.593 295.962L495.754 290.404L497.334 291.539L491.034 301.01L489.816 300.135L492.269 296.446L495.032 292.548L486.897 298.038L485.964 297.368L488.026 287.545L485.511 291.593L483.058 295.281L481.839 294.406L488.14 284.935L489.713 286.065Z" fill="#676666"/>
</g>
<g id="man-face-sideview 1">
<path id="Vector_53" d="M615.396 150.012C612.468 154.054 607.198 158.443 602.514 158.674C590.802 159.252 594.315 159.252 584.946 156.942C574.991 152.899 576.162 152.899 568.55 141.926C568.624 137.963 565.432 127.419 566.255 123.536L621.924 135.382C621.924 135.382 621.569 136.31 615.396 150.012Z" fill="#DB8B8B"/>
<path id="Vector_54" d="M566.135 122.868C561.929 111.357 556.107 100.272 553.61 88.3142C550.754 74.6367 554.981 62.5617 565.376 52.1283C570.882 46.6054 577.393 43.8268 585.69 43.3073C596.445 42.6555 606.768 44.4344 617.102 46.5025C619.883 47.0562 622.565 48.0707 625.296 48.7028C628.027 49.335 630.867 49.3889 633.118 47.3013C633.384 47.0867 633.693 46.9203 634.03 46.8112C634.172 46.7573 634.374 46.8357 634.729 46.87C635.111 48.4284 634.811 50.026 634.729 51.6187C634.636 51.6591 634.554 51.7168 634.489 51.788C634.423 51.8591 634.375 51.9421 634.348 52.0312C634.322 52.1204 634.316 52.2136 634.333 52.3048C634.349 52.3959 634.388 52.4828 634.445 52.5596L635.182 52.1381C636.828 50.885 638.229 49.3944 639.328 47.7276C639.945 46.8112 640.655 45.9487 642.42 46.4437V59.0872L642.966 59.1852C643.599 57.9306 644.238 56.6761 645.074 55.0295C645.773 59.5527 644.364 63.4389 643.299 67.3397C642.343 70.8535 641.294 74.3623 638.454 77.1409C638.424 77.1239 638.39 77.1128 638.354 77.1082C638.319 77.1037 638.283 77.1059 638.248 77.1147C638.214 77.1235 638.182 77.1386 638.154 77.1592C638.126 77.1797 638.104 77.2052 638.088 77.234C634.265 77.2732 630.791 75.9403 627.388 74.5975C622.75 72.7696 618.206 70.7407 613.465 68.7168C611.262 72.4054 608.476 75.7891 605.195 78.763C603.529 80.2332 601.574 81.4877 600.279 83.2862L600.148 83.3891C599.893 83.4468 599.666 83.5766 599.499 83.7593C599.333 83.942 599.237 84.1679 599.225 84.4036V84.433L598.679 85.0161C597.265 87.4088 596.73 90.141 597.149 92.8228C597.461 95.273 595.849 95.9983 593.741 96.4002C591.376 96.851 590.068 94.8163 589.631 93.4147C588.835 90.7378 588.203 88.9503 586.117 86.9078C583.845 84.7319 581.713 84.58 579.621 86.9078C578.891 87.7432 578.354 88.7012 578.043 89.7256C576.546 94.2194 576.863 98.5466 579.31 102.751C577.895 108.524 574.394 113.229 570.079 118.09C569.849 116.62 570.401 115.64 569.582 114.66C568.151 117.394 567.943 120.418 566.135 122.868Z" fill="#2F1C18"/>
<path id="Vector_55" d="M638.023 76.8912C638.039 76.8623 638.062 76.8368 638.09 76.8161C638.118 76.7955 638.15 76.7803 638.185 76.7715C638.22 76.7627 638.257 76.7605 638.293 76.765C638.329 76.7696 638.363 76.7807 638.394 76.7978C638.854 80.9184 637.79 84.8571 636.572 88.776C636.311 89.6316 636.189 90.5315 635.851 91.3625C633.48 97.204 638.887 99.9872 641.945 103.714C643.053 105.091 645.568 105.627 645.23 107.899C643.452 109.069 641.181 108.681 639.258 109.374C638.4 109.689 637.563 109.964 637.552 111.007C637.541 112.049 638.012 112.703 639.253 112.801C638.217 113.785 638.572 115.132 638.333 116.302C637.813 118.884 636.422 120.207 633.386 119.666C629.655 119.039 626.409 117.369 622.966 115.948C627.57 119.031 629.852 119.031 633.386 120.649C636.018 121.426 635.209 123.211 633.769 125.32C632.328 127.43 632.118 131.841 631.464 134.093C631.082 135.42 630.949 136.807 629.852 137.884C628.86 136.9 627.414 137.471 626.212 137.053C617.825 134.127 609.25 131.614 601.439 127.484C595.057 124.101 590.847 119.671 591.539 112.605C591.605 111.906 591.744 111.1 590.869 110.638C587.273 112.605 584.775 112.113 582.227 108.951C580.671 106.94 579.375 104.779 578.365 102.51C575.884 98.3104 575.562 93.9489 577.08 89.4399C577.396 88.412 577.94 87.4507 578.681 86.6125C580.803 84.2768 583.141 84.1244 585.445 86.3076C587.584 88.3529 589.131 90.8282 589.955 93.5211C590.398 94.9274 590.664 96.5943 593.062 96.1419C595.201 95.7387 596.835 95.0012 596.519 92.5524C596.094 89.8616 596.637 87.1202 598.07 84.7194C598.231 84.7056 598.378 84.6366 598.482 84.5272C598.586 84.4178 598.637 84.2767 598.624 84.1342V84.1047C599.549 84.208 600.059 84.0113 599.561 83.0869L599.694 82.9836C600.857 83.5884 601.355 82.6837 601.981 82.1575C604.868 79.6301 607.948 77.2404 610.186 74.2212C611.094 72.9969 611.947 73.0362 613.155 73.5033C615.054 74.3321 617.001 75.0707 618.988 75.7161C624.528 77.265 630.129 78.509 636.007 78.391C637.148 78.3615 638.306 78.4402 638.023 76.8912ZM579.091 97.8531L581.861 98.2022C582.249 101.452 585.822 103.557 585.24 107.088C585.091 107.987 586.863 108.897 588.259 108.686C589.655 108.474 589.367 107.314 589.323 106.453C588.988 100.105 586.921 93.9244 583.301 88.4417C579.706 89.6808 578.343 92.7835 579.091 97.8531ZM618.307 82.7869C623.476 81.9068 628.146 83.4262 632.799 85.0046C629.06 80.7561 623.719 79.8907 618.307 82.7869ZM631.791 91.2543C629.774 88.1909 626.068 86.8288 622.972 88.245C621.204 89.0563 618.767 89.9217 619.049 93.1031C623.01 89.0465 627.154 88.7416 631.791 91.2543ZM628.938 98.3497C630.965 97.0418 632.007 94.1849 631.115 92.4246C630.628 91.4657 630.007 91.2002 629.049 91.9968C627.387 93.3982 627.331 96.6681 628.938 98.3497Z" fill="#DB8B8B"/>
<path id="Vector_56" d="M578.974 102.078C579.972 104.35 581.253 106.515 582.793 108.53C585.332 111.725 587.799 112.213 591.365 110.221C592.234 110.714 592.096 111.518 592.03 112.193C591.344 119.277 595.52 123.719 601.851 127.11C609.599 131.251 618.106 133.77 626.426 136.703C627.618 137.122 629.052 136.536 630.036 137.536C626.964 140.179 620.39 141.131 617.153 140.771C609.669 139.933 606.501 140.321 599 139.616C590.713 138.837 584.075 138.176 576.162 135.574C567.969 132.882 565.461 128.422 565.763 122.255C567.582 119.79 567.791 116.758 569.208 114.007C570.033 114.993 569.478 115.979 569.708 117.458C574.022 112.612 577.55 107.88 578.974 102.078Z" fill="#C57D7D"/>
<path id="Vector_57" d="M638.879 112.473C637.554 112.38 637.057 111.778 637.063 110.781C637.069 109.785 637.968 109.54 638.885 109.243C640.937 108.576 643.363 108.942 645.261 107.853C644.782 110.619 643.262 111.713 638.879 112.473Z" fill="#C57D7D"/>
<path id="Vector_58" d="M638.191 77.2454C638.475 78.8148 637.31 78.7401 636.128 78.7401C630.213 78.8596 624.572 77.5991 619.003 76.0298C617.003 75.3759 615.043 74.6275 613.132 73.7878C611.917 73.3145 611.058 73.2896 610.144 74.5152C607.914 77.5742 604.792 79.9956 601.888 82.5564C601.28 83.0895 600.773 84.0062 599.586 83.3934C600.924 81.565 602.93 80.3045 604.603 78.7949C607.952 75.7714 610.795 72.3314 613.043 68.5814C617.882 70.6241 622.52 72.6867 627.253 74.56C630.743 75.9301 634.266 77.2952 638.191 77.2454Z" fill="#C57D7D"/>
<path id="Vector_59" d="M634.721 51.8935L633.715 52.4108C633.637 52.3166 633.585 52.2099 633.562 52.098C633.54 51.9861 633.547 51.8716 633.584 51.7622C633.62 51.6528 633.686 51.551 633.775 51.4636C633.865 51.3763 633.976 51.3054 634.102 51.2558L634.721 51.8935Z" fill="#FEFEFE"/>
<path id="Vector_60" d="M578.726 97.8732C577.891 92.6718 579.412 89.4884 583.424 88.217C587.47 93.8375 589.785 100.176 590.168 106.687C590.212 107.57 590.49 108.765 588.981 108.977C587.473 109.189 585.445 108.261 585.612 107.338C586.23 103.715 582.274 101.556 581.841 98.2213L578.726 97.8732Z" fill="#C57D7D"/>
<path id="Vector_61" d="M618.307 82.5758C624.103 78.6715 629.679 80.0149 633.44 86.112C628.591 83.7541 623.769 81.4802 618.307 82.5758Z" fill="#2F1C18"/>
<path id="Vector_62" d="M632.378 91.6277C627.273 88.4079 622.71 88.8041 618.349 93.9922C618.038 89.9235 620.722 88.8167 622.668 87.7791C626.077 85.968 630.17 87.7099 632.378 91.6277Z" fill="#2F1C18"/>
<path id="Vector_63" d="M628.816 98.6124C627.276 96.9042 627.33 93.5828 628.922 92.1593C629.824 91.3501 630.435 91.6199 630.902 92.5938C631.751 94.3819 630.758 97.2838 628.816 98.6124Z" fill="#2F1C18"/>
</g>
</g>
</g>
<defs>
<linearGradient id="paint0_linear" x1="947.733" y1="140.236" x2="-6.96156" y2="687.761" gradientUnits="userSpaceOnUse">
<stop stop-color="#2AE3D8"/>
<stop offset="1" stop-color="#3900DC" stop-opacity="0.56"/>
</linearGradient>
<clipPath id="clip0">
<rect width="1057.7" height="784.98" fill="white"/>
</clipPath>
</defs>
</svg>